<?xml version="1.0" standalone="no"?>
<!DOCTYPE svg PUBLIC "-//W3C//DTD SVG 1.1//EN" "http://www.w3.org/Graphics/SVG/1.1/DTD/svg11.dtd" >
<!--
2013-9-30: Created.
-->
<svg>
<metadata>
Created by iconfont
</metadata>
<defs>

<font id="iconfont" horiz-adv-x="1024" >
  <font-face
    font-family="iconfont"
    font-weight="500"
    font-stretch="normal"
    units-per-em="1024"
    ascent="896"
    descent="-128"
  />
    <missing-glyph />
    
    <glyph glyph-name="x" unicode="x" horiz-adv-x="1001"
d="M281 543q-27 -1 -53 -1h-83q-18 0 -36.5 -6t-32.5 -18.5t-23 -32t-9 -45.5v-76h912v41q0 16 -0.5 30t-0.5 18q0 13 -5 29t-17 29.5t-31.5 22.5t-49.5 9h-133v-97h-438v97zM955 310v-52q0 -23 0.5 -52t0.5 -58t-10.5 -47.5t-26 -30t-33 -16t-31.5 -4.5q-14 -1 -29.5 -0.5
t-29.5 0.5h-32l-45 128h-439l-44 -128h-29h-34q-20 0 -45 1q-25 0 -41 9.5t-25.5 23t-13.5 29.5t-4 30v167h911zM163 247q-12 0 -21 -8.5t-9 -21.5t9 -21.5t21 -8.5q13 0 22 8.5t9 21.5t-9 21.5t-22 8.5zM316 123q-8 -26 -14 -48q-5 -19 -10.5 -37t-7.5 -25t-3 -15t1 -14.5
t9.5 -10.5t21.5 -4h37h67h81h80h64h36q23 0 34 12t2 38q-5 13 -9.5 30.5t-9.5 34.5q-5 19 -11 39h-368zM336 498v228q0 11 2.5 23t10 21.5t20.5 15.5t34 6h188q31 0 51.5 -14.5t20.5 -52.5v-227h-327z" />
    

    
    <glyph glyph-name="empty" unicode="&#59127;" d="M590.208 441.824v-210.496a32 32 0 1 1 64 0v210.496a32 32 0 1 1-64 0M398.208 441.824v-210.496a32 32 0 1 1 64 0v210.496a32 32 0 1 1-64 0M377.664 636.416l-8.896 63.36 253.504 35.648 8.928-63.392-253.536-35.616z m443.616 62.336l-126.72-17.792-11.872 84.416a36.512 36.512 0 0 1-14.432 24.224c-16.416 12.384-41.28 11.072-54.752 9.216L359.68 763.136c-46.592-6.56-60.16-30.688-57.28-51.072l11.84-84.544-126.72-17.824a32 32 0 1 1 8.928-63.36l45.92 6.432a31.36 31.36 0 0 1-4.192-14.976v-447.936c0-35.328 28.704-64.032 64-64.032h447.968a64.096 64.096 0 0 1 64 64.032V537.792a32 32 0 1 1-64 0v-447.968l-448 0.032V537.792a31.744 31.744 0 0 1-8.992 22.112l537.056 75.488a32 32 0 0 1 27.2 36.16 31.648 31.648 0 0 1-36.16 27.2z"  horiz-adv-x="1024" />

    
    <glyph glyph-name="refresh" unicode="&#59166;" d="M832 384a32 32 0 0 1-32-32c0-158.784-129.216-288-288-288s-288 129.216-288 288 129.216 288 288 288c66.208 0 129.536-22.752 180.608-64H608a32 32 0 0 1 0-64h160a32 32 0 0 1 32 32V704a32 32 0 0 1-64 0v-80.96A350.464 350.464 0 0 1 512 704C317.92 704 160 546.08 160 352s157.92-352 352-352 352 157.92 352 352a32 32 0 0 1-32 32"  horiz-adv-x="1024" />

    
    <glyph glyph-name="switch" unicode="&#59182;" d="M512 576c23.616 0 44.032 12.96 55.136 32 5.472 9.44 8.864 20.288 8.864 32a64 64 0 1 1-128 0c0-11.712 3.392-22.56 8.864-32 11.104-19.04 31.52-32 55.136-32M512 448c-23.616 0-44.032-12.96-55.136-32A63.584 63.584 0 0 1 448 384c0-11.712 3.392-22.56 8.864-32 11.104-19.04 31.52-32 55.136-32 23.616 0 44.032 12.96 55.136 32 5.472 9.44 8.864 20.288 8.864 32s-3.392 22.56-8.864 32c-11.104 19.04-31.52 32-55.136 32M512 192c-23.616 0-44.032-12.96-55.136-32A63.584 63.584 0 0 1 448 128a64 64 0 1 1 128 0c0 11.712-3.392 22.56-8.864 32-11.104 19.04-31.52 32-55.136 32"  horiz-adv-x="1024" />

    
    <glyph glyph-name="undo" unicode="&#59193;" d="M596.16 611.936H258.56l101.376 101.44a31.968 31.968 0 1 1-45.248 45.216L178.56 622.496c-11.904-11.872-18.496-27.84-18.56-44.8a63.04 63.04 0 0 1 18.56-45.28l136.128-136.16a31.904 31.904 0 0 1 45.248 0 31.968 31.968 0 0 1 0 45.248l-106.752 106.496H596.16c114.88 0 208.32-93.312 208.32-208s-93.44-208-208.32-208h-223.36a32 32 0 0 1 0-64h223.36c150.144 0 272.32 122.016 272.32 272 0 149.984-122.176 272-272.32 272"  horiz-adv-x="1024" />

    
    <glyph glyph-name="question" unicode="&#59943;" d="M510.628258-59.87338999999997c-246.104117 0-446.376397 200.222137-446.376397 446.376397 0 246.105141 200.272279 446.376397 446.376397 446.376397 246.105141 0 446.376397-200.271256 446.376397-446.376397C957.004655 140.348748 756.733399-59.87338999999997 510.628258-59.87338999999997zM510.628258 786.946258c-220.796732 0-400.443251-179.64652-400.443251-400.443251 0-220.845851 179.647543-400.443251 400.443251-400.443251 220.797755 0 400.444275 179.597401 400.444275 400.443251C911.072533 607.3007620000001 731.426013 786.946258 510.628258 786.946258zM465.343889 247.707894L465.343889 277.10134100000005c0 12.354376 0.896416 23.464411 2.739391 33.278941 1.792832 9.764388 4.583388 19.031449 8.468882 27.799136 3.886517 8.767688 9.017374 17.287735 15.493879 25.507954 6.426363 8.270361 14.548344 17.038048 24.311709 26.304086l34.824133 33.228799c9.763364 8.767688 18.132986 18.582217 25.107841 29.393447 6.973832 10.81123 10.462283 23.962761 10.462283 39.406498 0 20.126386-6.376221 36.966936-18.930141 50.615794-12.654204 13.649881-30.589692 20.525476-53.804417 20.525476-11.806907 0-22.517853-2.191922-32.083719-6.575766-9.465582-4.383844-17.736966-10.31288-24.710798-17.785062-6.974855-7.473205-12.256138-16.09149-15.842827-25.90602-3.586688-9.813506-5.678326-19.827581-6.176676-30.140461l-95.054913 8.468882c3.039219 24.810059 9.665127 46.829562 19.678178 66.159816 10.063193 19.329231 23.066345 35.669384 39.008432 49.070602 15.991206 13.401218 34.32476 23.563672 54.900378 30.53955 20.624736 6.973832 42.794665 10.412141 66.50774 10.412141 22.168905 0 43.193755-3.238764 63.020312-9.66615 19.828604-6.42534 37.365003-15.991206 52.559053-28.595268s27.151383-28.198226 35.920094-46.780443c8.767688-18.532075 13.151531-39.954991 13.151531-64.166415 0-16.490579-1.792832-30.888498-5.379521-43.243897-3.587712-12.404518-8.768711-23.713075-15.493879-34.076096-6.67605-10.262738-14.797008-20.22667-24.362874-29.741371-9.514701-9.514701-20.225647-19.478633-32.083719-29.741371-10.261715-8.767688-18.681478-16.538675-25.107841-23.215748-6.476505-6.67605-11.607362-13.401218-15.443737-20.126386-3.886517-6.67605-6.576789-13.849426-8.120958-21.621437-1.545192-7.721869-2.342348-17.237593-2.342348-28.596292l0-20.126386L465.343889 247.707894zM449.899128 140.29962899999998c0 16.439414 6.02932 30.637788 18.184151 42.494837 12.05557 11.856026 26.653033 17.785062 43.640939 17.785062 16.489556 0 30.937616-5.680373 43.293015-17.037025 12.355399-11.30958 18.582217-25.209148 18.582217-41.698704 0-16.490579-6.077416-30.68793-18.184151-42.544979-12.106736-11.857049-26.653033-17.785062-43.691081-17.785062-8.270361 0-16.09149 1.594311-23.613814 4.682649-7.423063 3.088338-13.998829 7.1744-19.629059 12.354376-5.679349 5.131881-10.212596 11.308557-13.550621 18.533099C451.544605 124.30740000000003 449.899128 132.02824499999997 449.899128 140.29962899999998z"  horiz-adv-x="1024" />

    
    <glyph glyph-name="shouye" unicode="&#58926;" d="M362.666667 0.085333V256.149333c0 36.266667 33.109333 63.850667 72.533333 63.850667h153.6c39.253333 0 72.533333-27.648 72.533333-63.850667v-256.064h59.904c61.269333 0 110.762667 47.957333 110.762667 106.730667V481.834667L557.162667 756.672a63.808 63.808 0 0 1-90.325334 0L192 481.834667v-375.018667c0-58.88 49.386667-106.730667 110.762667-106.730667H362.666667z m42.666666 0h213.333334V256.149333c0 10.709333-12.586667 21.184-29.866667 21.184h-153.6c-17.408 0-29.866667-10.389333-29.866667-21.184v-256.064z m469.333334 439.082667v-332.352c0-82.645333-68.885333-149.397333-153.429334-149.397333H302.762667C218.133333-42.581333 149.333333 24.064 149.333333 106.816V439.168l-27.584-27.584a21.333333 21.333333 0 1 0-30.165333 30.165333L436.672 786.837333a106.474667 106.474667 0 0 0 150.656 0l345.088-345.088a21.333333 21.333333 0 0 0-30.165333-30.165333L874.666667 439.168z"  horiz-adv-x="1024" />

    
    <glyph glyph-name="sousuo" unicode="&#58930;" d="M474.453333 11.946667c-225.28 0-409.6 184.32-409.6 409.6s184.32 409.6 409.6 409.6 409.6-184.32 409.6-409.6-184.32-409.6-409.6-409.6z m0 68.266666c187.733333 0 341.333333 153.6 341.333334 341.333334s-153.6 341.333333-341.333334 341.333333-341.333333-153.6-341.333333-341.333333 153.6-341.333333 341.333333-341.333334z m252.586667-54.613333c-13.653333 13.653333-10.24 37.546667 3.413333 47.786667s37.546667 10.24 47.786667-3.413334l64.853333-78.506666c13.653333-13.653333 10.24-37.546667-3.413333-47.786667s-37.546667-10.24-47.786667 3.413333l-64.853333 78.506667z"  horiz-adv-x="1024" />

    
    <glyph glyph-name="window" unicode="&#58919;" d="M173.1 603.5c-28.1 0-50.8-22.8-50.8-50.8v-466c0-28.1 22.8-50.8 50.8-50.8h550.7c28.1 0 50.8 22.8 50.8 50.8v466c0 28.1-22.8 50.8-50.8 50.8H173.1z m8.5 67.7v8.5c0 65.5 53.1 118.6 118.6 118.6h550.7c65.5 0 118.6-53.1 118.6-118.6v-466c0-65.5-53.1-118.6-118.6-118.6h-8.5v-8.5c0-65.5-53.1-118.6-118.6-118.6H173.1c-65.5 0-118.6 53.1-118.6 118.6v466c0 65.5 53.1 118.6 118.6 118.6h8.5z m67.7 0h474.5c65.5 0 118.6-53.1 118.6-118.6v-389.8h8.5c28.1 0 50.8 22.8 50.8 50.8v466c0 28.1-22.8 50.8-50.8 50.8H300.2c-28.1 0-50.8-22.8-50.8-50.8v-8.4z"  horiz-adv-x="1024" />

    
    <glyph glyph-name="super-manager" unicode="&#58881;" d="M306.1624626 594.73343774c0 88.21608733 73.51340608 161.72949354 161.72949366 161.72949357s161.72949354-73.51340608 161.7294936-161.72949357-73.51340608-161.72949354-161.7294936-161.72949382-161.72949354 73.51340608-161.72949366 161.72949379m196.03574989-548.90009962h-357.76524359c-4.90089373 0-19.6035751 4.90089373-24.50446874 14.70268125-4.90089373 4.90089373-4.90089373 19.6035751-4.90089369 24.50446871 34.3062562 161.72949354 181.33306848 284.25183738 347.96345608 284.25183726h4.90089371c122.52234359 0 225.44111228 102.91876863 225.44111222 225.4411124s-102.91876863 225.44111228-225.44111222 225.44111241c-122.52234359 0-225.44111228-102.91876863-225.44111251-225.44111241 0-78.41429982 39.20714991-142.12591868 98.01787517-181.33306871-147.02681234-44.10804374-259.74736865-161.72949354-289.15273126-318.55809352-4.90089373-24.50446866 0-58.81072511 19.60357512-78.41429985 19.6035751-24.50446866 53.90983133-39.20714991 78.4142999-39.20715014h323.45898741c19.6035751 0 34.3062562 14.70268123 34.30625618 34.30625634s-14.70268123 34.3062562-34.30625618 34.30625626m284.25183732 4.90089367c-34.3062562 19.6035751-127.42323745 73.51340608-127.42323755 176.43217487v39.20715003c14.70268123 4.90089373 34.3062562 14.70268123 44.10804368 19.60357495 34.3062562 14.70268123 58.81072511 34.3062562 83.31519387 44.10804374l14.70268124-14.70268142c14.70268123-14.70268123 34.3062562-24.50446866 53.9098312-34.30625607 19.6035751-14.70268123 39.20714991-19.6035751 58.81072497-24.50446884v-34.30625621c4.90089373-93.11698117-58.81072511-142.12591868-127.42323741-171.53128105m196.03574981 240.1437935v24.50446867h-24.50446861c-4.90089373 0-34.3062562 4.90089373-63.71161874 19.60357505-14.70268123 4.90089373-34.3062562 19.6035751-44.1080437 24.50446873-14.70268123 4.90089373-19.6035751 19.6035751-24.50446879 24.50446878l-24.50446873 44.10804378-24.50446882-34.30625621c-19.6035751-19.6035751-44.10804374-44.10804374-88.21608749-58.81072508-24.50446866-14.70268123-53.90983133-19.6035751-63.7116186-24.50446863l-14.70268122-4.90089372v-83.31519382c0-161.72949354 161.72949354-230.34200603 181.33306856-240.14379359l4.9008936-4.90089373 14.70268157 4.90089373c117.62144986 44.10804374 181.33306848 127.42323745 181.33306858 240.14379359v68.61251245"  horiz-adv-x="1024" />

    
    <glyph glyph-name="emailS-o" unicode="&#58880;" d="M524.11463602 133.63085526999998H188.94303907l222.10166073 222.10166068 12.114636-12.11463604c16.15284814-16.15284814 40.38212009-28.26748405 64.61139219-28.26748413 24.22927201 0 48.45854425 8.07642403 64.6113921 28.26748413l258.44556875 258.44556859V464.76424023c0-24.22927201 20.19105999-44.42033221 44.42033217-44.42033212s44.42033221 20.19105999 44.42033201 44.42033212v173.64311654c0 52.49675609-40.38212009 96.9170882-92.87887625 96.91708817h-646.11392171c-52.49675609 0-92.87887629-44.42033221-92.8788763-96.91708817v-492.66186546c0-52.49675609 40.38212009-96.9170882 92.8788763-96.9170883h363.43908096c24.22927201 0 44.42033221 20.19105999 44.42033218 44.42033215-4.038212 24.22927201-20.19105999 40.38212009-44.42033218 40.38212011z m-371.5155051 84.80245238v395.74477708l197.87238872-197.8723887-197.87238872-197.87238838z m343.24802094 185.75775234c-4.038212-4.038212-8.07642403-4.038212-12.11463591 0l-246.33093269 246.33093272h504.77650147l-246.33093287-246.33093272zM936.01226113 254.77721571999996l-113.06993627 125.18457228c-16.15284814 16.15284814-44.42033221 20.19105999-60.57318013 4.038212-16.15284814-16.15284814-20.19105999-44.42033221-4.03821204-60.57318006l60.57318017-68.64960422h-214.02523657c-20.19105999 0-40.38212009-16.15284814-40.3821202-40.38212019 0-20.19105999 16.15284814-40.38212009 40.3821202-40.38211995h218.06344857l-76.7260282-68.64960437c-16.15284814-16.15284814-20.19105999-44.42033221-4.03821193-60.57318014 8.07642403-8.07642403 20.19105999-12.11463602 32.30569607-12.11463601 12.11463602 0 20.19105999 4.038212 28.26748404 12.11463601l125.18457222 113.06993622c12.11463602 12.11463602 20.19105999 28.26748405 20.19106017 48.45854425 8.07642403 16.15284814 4.038212 36.34390811-12.1146361 48.45854418z"  horiz-adv-x="1024" />

    
    <glyph glyph-name="systemM" unicode="&#58882;" d="M883.01072852 811.7980849H140.98927148c-45.42988523 0-87.07394652-37.85823758-87.07394649-87.0739465v-514.8720313c0-45.42988523 37.85823758-87.07394652 87.07394649-87.07394659H398.42528726v-7.57164752c0-30.28659003 26.5007663-56.78735631 56.78735643-56.78735635h113.57471262c30.28659003 0 56.78735631 26.5007663 56.78735643 56.78735635v7.57164752h257.43601578c45.42988523 0 87.07394652 37.85823758 87.07394649 87.07394659V728.50996217c0 45.42988523-37.85823758 83.28812269-87.07394649 83.28812273z m-772.30804709-484.58544121V728.50996217c0 15.14329513 11.35747127 30.28659003 30.28659005 30.28659004h742.02145704c15.14329513 0 30.28659003-11.35747127 30.28659005-30.28659004v-401.29731848c0-15.14329513-11.35747127-30.28659003-30.28659005-30.28659021H140.98927148c-15.14329513 0-30.28659003 15.14329513-30.28659005 30.28659021z m768.52222326-143.86130302c-18.92911874 0-34.07241385 15.14329513-34.07241381 34.0724139s15.14329513 34.07241385 34.07241381 34.07241388 34.07241385-15.14329513 34.07241388-34.07241388-15.14329513-34.07241385-34.07241388-34.0724139z m-53.00153251-227.14942557v22.71494255c0 30.28659003-26.5007663 56.78735631-56.78735649 56.78735634H254.56398431c-30.28659003 0-56.78735631-26.5007663-56.78735649-56.78735634v-22.71494255h628.44674436zM830.00919587 535.4329503399999h-200.64865929c-11.35747127 0-18.92911874-7.57164753-26.50076639-15.14329495l-3.78582367-3.78582384-49.21570894-87.07394632-87.07394641 280.15095813c-3.78582375 15.14329513-22.71494251 22.71494251-34.07241386 18.92911881-7.57164753-3.78582375-15.14329513-7.57164753-15.14329509-15.14329504L326.49463582 535.4329503399999h-132.50383169c-15.14329513 0-30.28659003-11.35747127-30.28659014-30.28659008 0-15.14329513 11.35747127-30.28659003 30.28659014-30.28659007h147.64712668c11.35747127 0 22.71494251 3.78582375 30.28659019 15.14329509l64.35900378 128.7180079 87.07394649-272.57931076c3.78582375-7.57164753 7.57164753-15.14329513 15.14329503-18.92911873 15.14329513-7.57164753 30.28659003 0 37.85823766 11.35747108l75.71647504 132.50383175h185.50536436c15.14329513 0 30.28659003 11.35747127 30.28659018 30.28659006-7.57164753 22.71494251-18.92911874 34.07241385-37.85823767 34.07241376z"  horiz-adv-x="1024" />

    
    <glyph glyph-name="JournalM2" unicode="&#58883;" d="M192 537.6h390.4v-32H192v32z m0-128h230.4v-32H192v32z m0-128h160v-32H192v32z m0-128h96v-32h-96v32zM780.8 672l-64-64v96h-64v-64h-64v64h-64v-64h-64v64h-64v-64h-64v64h-64v-64H192v64h-64v-704h588.8V192l64 64v-320H64V768h128V832h64v-64h64V832h64v-64h64V832h64v-64h64V832h64v-64h128v-96z m-32-64l96 96L1024 524.8l-96-96L748.8 608zM544 57.60000000000002H371.2V230.39999999999998L544 57.60000000000002zM396.8 256l326.4 320L896 403.2l-326.4-320L396.8 256z"  horiz-adv-x="1024" />

    
    <glyph glyph-name="JournalM" unicode="&#58884;" d="M985.24255238 48.59508420999998c0-64.32423049-50.54046687-114.86469712-114.86469712-114.86469726h-689.18818326c-64.32423049 0-114.86469712 50.54046687-114.86469707 114.86469726v431.89126138h918.91757745m0 64.32423042h-918.91757745v110.27010943c0 64.32423049 50.54046687 114.86469712 114.86469707 114.86469716H236.32472669c0 50.54046687 41.35129101 87.29716985 87.29717001 87.29716978 50.54046687 0 87.29716985-41.35129101 87.29716981-87.29716978h225.13480644c0 50.54046687 41.35129101 87.29716985 87.29716981 87.29716978 50.54046687 0 87.29716985-41.35129101 87.29717006-87.29716978h59.72964244c64.32423049 0 114.86469712-50.54046687 114.86469712-114.86469716M245.51390246 108.32472669000003h367.56703103c18.37835166 0 32.16211519 13.78376365 32.16211527 32.1621152 0 18.37835166-13.78376365 32.16211519-32.16211527 32.16211535h-367.56703103c-18.37835166 0-32.16211519-13.78376365-32.16211528-32.16211535 0-18.37835166 13.78376365-32.16211519 32.16211528-32.1621152z m542.16137085 303.24280057H245.51390246c-18.37835166 0-32.16211519-13.78376365-32.16211528-32.16211513s13.78376365-32.16211519 32.16211528-32.16211517H787.67527331c18.37835166 0 32.16211519 13.78376365 32.1621152 32.16211517 0 18.37835166-13.78376365 32.16211519-32.1621152 32.16211513z m0-119.45928503H245.51390246c-18.37835166 0-36.75670304-13.78376365-36.75670306-36.75670308s13.78376365-36.75670304 36.75670306-36.75670315H787.67527331c18.37835166 0 32.16211519 13.78376365 32.1621152 32.16211524s-13.78376365 36.75670304-32.1621152 41.35129099z m22.97293951 367.56703108H649.83763657c-18.37835166 0-32.16211519-13.78376365-32.1621151-32.1621152 0-18.37835166 13.78376365-32.16211519 32.1621151-32.16211535h160.81057625c18.37835166 0 32.16211519 13.78376365 32.16211518 32.16211535s-13.78376365 32.16211519-32.16211518 32.1621152z"  horiz-adv-x="1024" />

    
    <glyph glyph-name="basicI" unicode="&#58885;" d="M855.06256233 923.09831223h-450.88222472c-29.40536241 0-53.90983133-24.50446866-53.90983115-53.90983133v-181.33306851c0-29.40536241-24.50446866-53.90983133-53.90983131-53.90983131h-181.33306868c-29.40536241 0-53.90983133-24.50446866-53.9098313-53.90983129v-627.31439952c0-58.81072511 49.00893745-107.81966239 107.8196625-107.8196625h686.12512466c58.81072511 0 107.81966239 49.00893745 107.8196625 107.8196625V815.27864973c0 58.81072511-49.00893745 107.81966239-107.8196625 107.8196625z m-117.62145005-808.64746848h-450.88222456c-14.70268123 0-29.40536241 14.70268123-29.4053624 29.40536274s14.70268123 24.50446866 29.4053624 24.50446866h450.88222456c14.70268123 0 24.50446866-14.70268123 24.5044688-24.50446866 0-14.70268123-9.80178751-29.40536241-24.5044688-29.40536274z m0 181.33306892h-450.88222456c-14.70268123 0-29.40536241 14.70268123-29.4053624 29.40536222s14.70268123 24.50446866 29.4053624 24.50446891h450.88222456c14.70268123 0 24.50446866-14.70268123 24.5044688-24.50446891 0-19.6035751-9.80178751-29.40536241-24.5044688-29.40536222z m0 176.43217466h-289.15273094c-14.70268123 0-24.50446866 14.70268123-24.50446867 24.5044689 0 14.70268123 14.70268123 29.40536241 24.50446867 29.40536245h289.15273094c14.70268123 0 24.50446866-14.70268123 24.5044688-29.40536245 0-9.80178751-9.80178751-24.50446866-24.5044688-24.5044689zM100.32492523 687.85541239h137.22502482c29.40536241 0 53.90983133 24.50446866 53.90983136 53.90983112v147.02681236c0 19.6035751-9.80178751 24.50446866-24.50446882 9.80178756l-181.33306858-186.23396235c-9.80178751-9.80178751-4.90089373-24.50446866 14.70268122-24.50446869z"  horiz-adv-x="1024" />

    
    <glyph glyph-name="msgM" unicode="&#58886;" d="M883.2 627.2H140.8c-44.8 0-76.80000001-32-76.8-70.4v-147.20000001c0-38.4 32-76.80000001 76.8-76.79999999h748.8c38.4 0 76.80000001 32 76.8 76.80000001V556.8c-6.4 38.4-38.4 70.4-83.2 70.4zM620.79999999 441.6H403.20000001c-19.2 0-38.4 19.2-38.40000001 38.4s19.2 38.4 38.39999999 38.4h224.00000001c19.2 0 38.4-19.2 38.4-38.4-6.4-19.2-19.2-38.4-44.80000001-38.4zM883.2 255.99999999H140.8C96 255.99999999 64 224 64 179.20000000000005V32c0-38.4 32-76.80000001 76.8-76.8h748.8c38.4 0 76.80000001 32 76.8 76.8V179.20000000000005C960 224 928 255.99999999 883.2 255.99999999zM620.79999999 70.39999999999998H403.20000001c-19.2 0-38.4 19.2-38.40000001 38.4s19.2 38.4 38.39999999 38.39999999h224.00000001c19.2 0 38.4-19.2 38.4-38.39999999-6.4-25.60000001-19.2-38.4-44.80000001-38.4zM736 851.2H288L140.8 704h742.4z"  horiz-adv-x="1024" />

    
    <glyph glyph-name="shenheyonghu" unicode="&#58890;" d="M455.95586257 375.91914297999995c-131.90105228 0-242.97562453 104.13241022-242.97562247 242.97562248s104.13241022 242.97562453 242.97562247 242.97562455 242.97562453-104.13241022 242.97562456-242.97562455-111.07457022-242.97562453-242.97562456-242.97562248z m0 409.58747884c-90.24808817 0-166.61185633-76.36376817-166.61185635-166.61185636S365.70777441 452.28290914 455.95586257 452.28290914s166.61185633 76.36376817 166.61185638 166.61185632-76.36376817 166.61185633-166.61185638 166.61185636zM567.03043484-40.61049791999994H67.19486578c-20.82648205 0-34.7108041 13.88432204-34.71080409 34.71080208 0 229.09130247 159.66969634 416.52964091 354.05019476 416.52964085h159.66969634c20.82648205 0 34.7108041-20.82648205 34.71080205-41.65296406s-20.82648205-34.7108041-41.65296406-34.71080206H386.53425645c-145.78537431 0-263.80210656-131.90105228-284.62858864-305.45507067h465.12476703c20.82648205 0 34.7108041-13.88432204 34.71080205-34.71080406 6.94216-20.82648205-13.88432204-34.7108041-34.71080205-34.71080208zM782.23741529-40.61049791999994c-124.95889226 0-222.14914249 104.13241022-222.14914247 222.14914045s104.13241022 222.14914249 222.14914247 222.14914248c124.95889226 0 222.14914249-104.13241022 222.14914247-222.14914248 0-124.95889226-97.19025023-222.14914249-222.14914247-222.14914045z m0 374.87667681c-83.30592819 0-152.7275343-69.42160615-152.72753433-152.72753636 0-83.30592819 69.42160615-152.7275343 152.72753433-152.72753431s152.7275343 69.42160615 152.72753433 152.72753431c0 83.30592819-69.42160615 152.7275343-152.72753433 152.72753636zM782.23741529 146.82784047999996c-20.82648205 0-34.7108041 13.88432204-34.7108041 34.71080205v104.13241023c0 20.82648205 13.88432204 34.7108041 34.7108041 34.71080407s34.7108041-13.88432204 34.71080408-34.71080407v-104.13241023c0-20.82648205-13.88432204-34.7108041-34.71080408-34.71080205zM865.54334347 146.82784047999996h-83.30592818c-20.82648205 0-34.7108041 13.88432204-34.7108041 34.71080205s13.88432204 34.7108041 34.7108041 34.71080409h83.30592818c20.82648205 0 34.7108041-13.88432204 34.71080411-34.71080409s-13.88432204-34.7108041-34.71080411-34.71080205z"  horiz-adv-x="1024" />

    
    <glyph glyph-name="fenpeijiaose" unicode="&#58891;" d="M555.008-8.704v268.8c0 42.496 21.504 80.896 55.296 102.4v4.096s128 68.096 123.904 285.696C730.112 738.304 678.912 896 512.512 896h-8.704c-170.496 0-217.6-153.6-221.696-243.2-4.096-204.8 123.904-285.696 123.904-285.696s16.896-16.896 16.896-47.104c0-8.704-12.8-21.504-21.504-29.696-72.704-55.296-324.096-115.2-341.504-234.496-12.8-51.2-89.6-132.096 162.304-166.4 68.096-8.704 162.304-12.8 290.304-12.8 51.2 0 93.696 0 132.096 4.096-21.504 12.8-38.4 25.6-42.496 29.696-21.504 8.704-47.104 38.4-47.104 80.896zM939.008 298.496h-256c-21.504 0-42.496-16.896-42.496-38.4v-268.8c0-8.704 8.704-16.896 8.704-16.896l144.896-98.304c8.704-4.096 12.8-4.096 16.896-4.096s8.704 0 16.896 8.704L972.8-20.992s8.704 4.096 8.704 12.8v268.8c0 20.992-16.896 37.888-42.496 37.888z m-4.096-148.992c-16.896-21.504-47.104-51.2-47.104-51.2s4.096-34.304 8.704-59.904c0-8.704-8.704-16.896-16.896-16.896h-8.704c-21.504 8.704-55.296 25.6-59.904 29.696-8.704-4.096-38.4-16.896-64-29.696h-8.704c-8.704 0-16.896 8.704-16.896 16.896 4.096 25.6 8.704 59.904 8.704 59.904s-29.696 34.304-47.104 51.2c-4.096 8.704-4.096 16.896 8.704 16.896 25.6 4.096 64 12.8 64 12.8s21.504 34.304 34.304 55.296C806.912 256 806.912 256 811.52 256s4.096 0 16.896-16.896c12.8-21.504 34.304-55.296 34.304-55.296s38.4-8.704 64-12.8c12.288-4.608 16.384-17.408 8.192-21.504z"  horiz-adv-x="1024" />

    
    <glyph glyph-name="xinzengyonghu" unicode="&#58892;" d="M509.34831 419.76026c131.510094 0 238.11987 106.609775 238.11987 238.11987S640.858404 896 509.34831 896s-238.11987-106.609775-238.11987-238.11987 106.609775-238.11987 238.11987-238.11987z m299.878232-96.77599C726.264608 383.993534 622.083186 420.618789 509.347315 420.618789c-281.304962 0-509.347315-228.042354-509.347315-509.347315l0.000995-0.905285v-33.060819h660.878141c-53.477489 46.924616-87.054619 115.408949-87.054619 191.73544 0 133.869805 103.290065 243.61525 234.522605 253.887751zM955.027211 131.979027h-63.668415v63.668415c0 35.162871-28.505543 63.668414-63.668414 63.668414s-63.668414-28.505543-63.668414-63.668414v-63.668415h-63.668415c-35.162871 0-63.668414-28.505543-63.668414-63.668414s28.505543-63.668414 63.668414-63.668415h63.668415v-63.668414c0-35.162871 28.505543-63.668414 63.668414-63.668414s63.668414 28.505543 63.668414 63.668414v63.668414h63.668415c35.162871 0 63.668414 28.505543 63.668414 63.668415s-28.505543 63.668414-63.668414 63.668414z"  horiz-adv-x="1024" />

    
    <glyph glyph-name="zhongzhimima" unicode="&#58893;" d="M765.77578071 529.92107404h-31.72197257c0 12.68878906 6.34439451 31.7219725 6.34439467 50.75515614v50.75515613c0 133.23228485-107.8547069 241.08699173-241.08699187 241.08699182S258.22421929 764.66367129 258.22421929 631.43138631v-57.09955078c0-19.03318355 0-31.7219725 6.3443944-50.75515614h-31.72197257c-63.44394518 0-114.19910123-57.09955071-114.19910148-120.54349584v-367.9748824c0-69.78833988 50.75515607-126.88789043 114.19910148-126.88789029h526.58474519c63.44394518 0 114.19910123 57.09955071 114.19910155 126.88789029v367.9748824c6.34439451 69.78833988-44.41076161 126.88789043-107.85470715 126.88789049z m-406.04124912 95.16591769c0 76.13273444 63.44394518 145.92107404 145.9210739 145.92107407s145.92107404-63.44394518 145.9210739-145.92107407v-95.16591769h-285.49775343v95.16591769z m279.15335884-634.43945209l-25.37757827 44.41076151c-50.75515607-38.06636702-120.54349585-44.41076161-183.98744085-19.03318341-88.82152336 31.7219725-145.92107404 126.88789043-133.23228497 215.70941385h63.44394525c-12.68878906-69.78833988 25.37757823-133.23228485 95.1659177-158.60986297 44.41076161-19.03318355 95.16591765-12.68878906 133.23228515 12.68878901-6.34439451 12.68878906-31.7219725 44.41076161-31.72197283 44.41076166l152.26546857 12.68878898-69.78833975-152.26546863z m76.13273414 209.36501923h-63.44394518c12.68878906 69.78833988-25.37757823 133.23228485-95.16591778 158.6098629-50.75515607 19.03318355-101.51031216 6.34439451-139.57667926-19.03318338l31.72197247-50.75515604h-139.57667939l50.75515616 145.92107372 25.37757798-44.41076156c50.75515607 38.06636702 126.88789043 50.75515607 190.33183561 25.37757799 95.16591765-38.06636702 145.92107404-126.88789043 139.57667939-215.70941363z"  horiz-adv-x="1024" />

    
    <glyph glyph-name="xinzenghangye" unicode="&#58894;" d="M568.805 128.382h284.017v56.806H568.805v-56.806zM398.389 355.6h454.433v56.806H398.39v-56.806z m284.022 227.216h170.412v56.802H682.411v-56.802zM909.628 213.59v-113.607c0-7.694-2.81-14.35-8.434-19.97-5.62-5.625-12.277-8.435-19.97-8.435H142.773c-7.691 0-14.346 2.81-19.97 8.435-5.62 5.62-8.431 12.276-8.431 19.97V213.59c0 7.691 2.81 14.35 8.43 19.97 5.625 5.62 12.28 8.43 19.97 8.43h738.452c7.694 0 14.35-2.81 19.97-8.43 5.624-5.62 8.434-12.28 8.434-19.97z m0 227.216v-113.61c0-7.69-2.81-14.347-8.434-19.967-5.62-5.624-12.277-8.434-19.97-8.434H142.773c-7.691 0-14.346 2.81-19.97 8.434-5.62 5.62-8.431 12.277-8.431 19.967v113.61c0 7.69 2.81 14.35 8.43 19.97 5.625 5.62 12.28 8.43 19.97 8.43h738.452c7.694 0 14.35-2.81 19.97-8.43 5.624-5.62 8.434-12.28 8.434-19.97z m0 227.217v-113.61c0-7.691-2.81-14.347-8.434-19.97-5.62-5.62-12.277-8.43-19.97-8.43H142.773c-7.691 0-14.346 2.81-19.97 8.43-5.62 5.623-8.431 12.279-8.431 19.97v113.61c0 7.69 2.81 14.345 8.43 19.97 5.625 5.62 12.28 8.43 19.97 8.43h738.452c7.694 0 14.35-2.81 19.97-8.43 5.624-5.625 8.434-12.28 8.434-19.97z m0 0"  horiz-adv-x="1024" />

    
    <glyph glyph-name="xinzengquyu" unicode="&#58895;" d="M109.793 193.78h481.19c39.514 79.389 121.229 134.076 215.927 134.076V622.79A107.252 107.252 0 0 1 699.658 730.04H109.793A107.252 107.252 0 0 1 2.54 622.79v-321.757A107.252 107.252 0 0 1 109.793 193.78z m0-26.802a106.259 106.259 0 0 0-35.586 6.503l8.784-46.717a53.626 53.626 0 0 1 53.626-53.626H566.28c-0.271 4.493-0.677 8.896-0.677 13.412 0 28.27 5.125 55.23 14.044 80.45H109.793z m801.953-51.12h-75.505v75.506c0 16.144-13.096 29.24-29.218 29.24h-0.18c-16.168 0-29.241-13.096-29.241-29.24v-75.506h-75.506c-16.144 0-29.24-13.074-29.24-29.24v-0.181c0-16.144 13.096-29.24 29.24-29.24h75.506v-75.484c0-16.166 13.073-29.262 29.24-29.262h0.18c16.123 0 29.219 13.096 29.219 29.262v75.484h75.505c16.167 0 29.263 13.096 29.263 29.24v0.18c0 16.167-13.096 29.24-29.263 29.24zM82.991 32.9a53.626 53.626 0 0 0-53.626 53.626l-7.948 127.055A106.8 106.8 0 0 0 2.54 274.23v-241.329A107.252 107.252 0 0 1 109.793-74.35h517.61A240.968 240.968 0 0 0 571.768 32.9H82.99z m723.919 268.13c-118.452 0-214.482-96.052-214.482-214.504 0-118.474 96.03-214.504 214.482-214.504 118.474 0 214.527 96.03 214.527 214.504 0 118.452-96.053 214.505-214.527 214.505z m0-402.184a187.703 187.703 0 1 0 0 375.406 187.703 187.703 0 0 0 0-375.406z"  horiz-adv-x="1024" />

    
    <glyph glyph-name="zengjia" unicode="&#58896;" d="M934.29876035 439.60267662h-368.76793156v368.7679314H452.52130139v-368.7679314h-368.76793163v-113.00952747H452.52130139v-368.76793154h113.0095274v368.76793154h368.76793156v113.00952747z"  horiz-adv-x="1024" />

    
    <glyph glyph-name="xinzengnengyuan" unicode="&#58897;" d="M553.006 368.01h406.748v31.985c0 114.81-93.076 207.887-207.887 207.887-110.208 0-200.335-85.775-207.39-194.201a44.016 44.016 0 0 1-16.492 11.33V831.754h-31.98c-114.816 0-207.887-93.076-207.887-207.887 0-110.213 85.775-200.335 194.201-207.39a44.016 44.016 0 0 1-11.33-16.492H64.246V368c0-114.816 93.071-207.887 207.887-207.887 110.208 0 200.335 85.775 207.39 194.201a44.016 44.016 0 0 1 16.492-11.33v-406.748h31.98c114.816 0 207.892 93.07 207.892 207.887 0 110.208-85.78 200.335-194.206 207.39a44.181 44.181 0 0 1 11.325 16.497z"  horiz-adv-x="1024" />

    
    <glyph glyph-name="cuowuzhuangtai" unicode="&#58898;" d="M232.716 626.154l37.239 37.129 521.329-521.328-37.239-37.24-521.329 521.439zM512.027-63.29C264.96-63.29 64.683 136.985 64.683 384c0 247.015 200.276 447.29 447.344 447.29 247.015 0 447.29-200.275 447.29-447.29 0-247.015-200.276-447.29-447.29-447.29z m0 814.207c-208.193 0-376.964-168.826-376.964-376.964 0-208.247 168.771-376.964 376.964-376.964 208.139 0 376.91 168.717 376.91 376.964 0 208.138-168.771 376.964-376.91 376.964z"  horiz-adv-x="1024" />

    
    <glyph glyph-name="xinzengziyuan-o" unicode="&#58899;" d="M1024.766-15.811000000000035V564.03c0 61.952-50.236 112.193-112.19 112.193h-579.84c-61.951 0-112.192-50.24-112.192-112.193V-15.809999999999945c0-61.955 50.24-112.189 112.193-112.189h579.84c61.953 0 112.19 50.234 112.19 112.189z m-459.713 60.35V216.765h-171.71V331.13300000000004h171.71V502.908h114.436v-171.775H851.78v-114.43H679.49v-172.228l-114.437 0.064zM139.71 167.163c-35.521 0-64.321 28.803-64.321 64.323V757.8240000000001c0 35.52 28.802 64.318 64.321 64.318h526.337c35.525 0 64.32-28.798 64.32-64.318v-8.192h73.854v34.176C804.222 845.76 753.986 896 692.032 896H112.19C50.238 896 0 845.76 0 783.808v-579.84c0-61.955 50.24-112.195 112.19-112.195h34.5v75.39h-6.979z"  horiz-adv-x="1028" />

    
    <glyph glyph-name="system" unicode="&#58887;" d="M62.00016699 731.27314131c0 23.11522559 18.72596953 41.8534998 41.85349981 41.85350068h293.90086757c23.11522559 0 41.8534998-18.72596953 41.85350069-41.85350068v-293.90086758c0-23.11522559-18.72596953-41.8534998-41.85350069-41.8534998H103.8536668c-23.11522559 0-41.8534998 18.72596953-41.8534998 41.8534998V731.27314131zM682.72835469 821.73804932c16.34501338 16.34413448 42.836117 16.35380244 59.18991943 0l207.81906328-207.81906328c16.34413448-16.34501338 16.35380244-42.836117 0-59.18991944L741.91827412 346.91000332c-16.34501338-16.34413448-42.836117-16.35292354-59.18991943 0L474.91017031 554.7281877c-16.34413448 16.34501338-16.35292354 42.836117 0 59.18991943L682.72835469 821.73717041zM523.51981982 269.75436737999996c0 23.11522559 18.72509062 41.8534998 41.85349981 41.85350069H859.2733083c23.11522559 0 41.8534998-18.72596953 41.85350068-41.85350068V-24.14650019999999c0-23.11522559-18.72596953-41.8534998-41.85350068-41.8534998H565.37244072c-23.11522559 0-41.8534998 18.72596953-41.8534998 41.85349981V269.75436737999996zM62.00016699 269.75436737999996c0 23.11522559 18.72596953 41.8534998 41.85349981 41.85350069h293.90086757c23.11522559 0 41.8534998-18.72596953 41.85350069-41.85350068V-24.14650019999999c0-23.11522559-18.72596953-41.8534998-41.85350069-41.8534998H103.8536668C80.73844121-66 62.00016699-47.27403046999996 62.00016699-24.14650019999999V269.75436737999996z"  horiz-adv-x="1024" />

    
    <glyph glyph-name="indexSysManage" unicode="&#58888;" d="M920.9403125 202.85062500000004V672.4321875c0 26.709375-17.9690625 48.373125-40.155 48.373125H161.1275c-22.1971875 0-40.1728125-21.6646875-40.1728125-48.373125v-469.5815625H57.370625v-83.5246875c0-30.980625 20.8265625-56.0615625 46.550625-56.0615625H937.98125c25.708125 0 46.5496875 25.0809375 46.5496875 56.0615625v83.5246875h-63.590625z m-53.55 0H603.8103125v-70.543125H438.111875v70.543125H174.513125V656.3090625h692.87625v-453.4584375zM321.2928125 263.6184375h70.8V366.90937499999995l-70.8-55.2290625zM416.481875 388.775625v-125.15625h70.7859375v132.61875l-21.225 31.20375zM606.858125 467.43375v-203.8153125h70.794375V461.94l-29.885625 46.479375zM511.683125 263.6184375h70.790625V443.004375l-70.790625-70.96875zM470.7546875 473.315625l40.9284375-54.375 142.696875 140.8134375 29.5528125-42.301875 26.7196875 133.5515625-112.486875-21.7846875 35.428125-39.7715625-118.4109375-110.5940625-34.996875 53.7571875-188.7646875-146.59125 20.218125-40.5009375z"  horiz-adv-x="1024" />

    
    <glyph glyph-name="wechat-o" unicode="&#58889;" d="M1044.95571582 834H129.19876455C92.12358359 834 62 803.87641641 62 766.80123545v-564.46961836c0-37.07518008 30.12358359-67.19876455 67.19876455-67.19876456H548.61174073v-126.98249237H375.7487126c-20.39134922 0-37.07518008-16.68383086-37.07518008-37.07518008s16.68383086-37.07518008 37.07518008-37.07518008h421.26673535c20.39134922 1.39031895 36.14830049 19.46446963 34.75798155 39.85581885-1.39031895 18.53759003-16.22039151 33.3676626-34.75798155 34.75798154h-173.78990683v126.98249238h422.19361406c37.07518008 0 67.19876455 30.12358359 67.19876455 67.19876367V766.80123545c0 37.07518008-30.58702383 67.19876455-67.6622039 67.19876455z m-6.95159648-74.15036016v-550.10298691H136.15036016V759.84963984h901.85375917zM673.74047393 578.18125605h18.53759003c-15.29351192 76.93099893-98.71266709 135.78784717-194.18125693 135.78784806-104.73738398-3.24407813-190.93717792-74.15036016-190.93717792-163.59423312 0-52.36869199 27.80638506-95.46858896 76.93099892-129.29969091l-18.53759004-58.39340889 67.66220391 33.83110196c24.56230693-6.0247169 43.09989698-9.26879502 67.6622039-9.26879502h18.53759004c-3.24407813 12.51287315-6.0247169 24.56230693-6.0247169 39.85581885-3.24407813 83.41915518 70.90628203 151.08135908 160.35015499 151.08135907m-101.9567461 52.83213223c15.29351192 0 24.56230693-9.26879502 24.56230694-24.56230693-3.24407813-12.51287315-12.51287315-21.78166817-24.56230694-21.78166817-15.29351192 0-31.05046318 9.26879502-31.05046318 21.78166817 0.46343935 15.29351192 15.75695127 24.56230693 31.05046318 24.56230693m-135.78784716-46.3439751c-12.51287315 0-27.80638506 9.26879502-27.80638507 21.78166817 0 15.29351192 15.29351192 24.56230693 27.80638507 24.56230693 15.29351192 0 24.56230693-9.26879502 24.56230693-24.56230693 0.46343935-12.51287315-8.80535566-21.78166817-24.56230693-21.78166817m413.38825927-154.32543808c0 76.93099893-76.93099893 138.56848594-163.59423223 138.56848594-92.6879502 0-163.5942331-61.63748701-163.5942331-138.56848594s70.90628203-138.56848594 163.5942331-138.56848594c18.53759003 0 37.07518008 6.0247169 58.3934089 9.26879502l52.36869198-27.80638506-15.29351191 49.12461387c37.07518008 25.02574628 68.12564326 64.88156513 68.12564326 107.98146211m-215.9629251 24.56230693c-9.26879502 0-18.53759003 9.26879502-18.53759003 18.53759004s9.26879502 18.53759003 18.53759003 18.53759004c15.29351192 0 24.56230693-9.26879502 24.56230694-18.53759004s-9.26879502-18.53759003-24.56230694-18.53759004m104.73738487 0c-9.26879502 0-18.53759003 9.26879502-18.53759004 18.53759004s9.26879502 18.53759003 18.53759004 18.53759004c15.29351192 0 24.56230693-9.26879502 24.56230693-18.53759004s-9.26879502-18.53759003-24.56230693-18.53759004z"  horiz-adv-x="1195" />

    
    <glyph glyph-name="sysAuthManage" unicode="&#58900;" d="M961.25292089 695.1018192500001s-91.90331733 5.88124918-139.92057364 49.47725275c-50.19208059 45.67495111-56.66679467 129.13383348-56.66679466 129.13383348S639.78791822 896.1517037 512.76094578 896.1517037c-124.82302103 0-251.89125689-22.43879822-251.89125689-22.43879822s-8.45778489-83.91399348-56.11580681-127.27455289c-50.53796503-45.95165867-140.47034785-51.33653333-140.47034786-51.33653334s-9.62893748-163.65310103 4.13240889-305.74849895c13.5538157-139.81013333 48.29275022-278.07531615 177.13773986-382.81519408C350.89794845-79.13927110999998 508.57270992-147.5697777800001 508.57270992-147.5697777800001s123.80357215 53.77471525 213.4750246 112.20491378c98.54065778 64.49227852 191.21462992 152.50955378 219.61720415 320.08753303 29.97301097 177.23483022 19.58798222 410.37915022 19.58798222 410.37915022zM685.90341689 35.18828088999999c-59.5600877-38.78881659-137.24694755-75.1248877-165.67743526-87.99057541V377.76801185H145.68895525c-0.30340741 3.00373333-0.60681482 6.01960297-0.91022222 9.00877274-11.41904118 117.70144237-3.41515378 253.09032297-3.41515378 253.09032296s74.40884622 4.46251615 116.28270934 42.5899046c39.43568118 35.86761008 46.46138311 105.45591941 46.46138311 105.4559194s105.20833897 18.44352948 208.5149203 18.44352948c2.56197215 0 5.06933097-0.01334992 7.63130311-0.02791348v-428.5605357l357.38843971-0.6189511c-2.47944533-26.19983645-5.73075911-52.20549215-9.91778134-76.94411853-23.44368355-138.67903052-100.22274845-211.65458015-181.82113659-265.01666133z"  horiz-adv-x="1024" />

    
    <glyph glyph-name="datadic" unicode="&#58901;" d="M744.06376953 416.78671875h-27.04921874V761.11845703h-0.11250001a23.05634766 23.05634766 0 0 1-23.11259766 23.11259766H196.10263673a23.05634766 23.05634766 0 0 1-18.83935548-9.72861328l-38.57695312-43.30107422a23.05634766 23.05634766 0 0 1-5.7366211-17.49023438h26.65634766v-665.94375H98.81474609A36.77783203 36.77783203 0 0 0 62.03691406 84.48984374999998V691.16015623c0 15.24023438 5.73574219 29.18671875 15.18310547 39.75908205L152.35156249 815.27314453l0.28125001-0.225C163.54179687 826.63300781 178.95078125 833.8312499900001 196.10263673 833.8312499900001h511.18330077c20.01972656 0 36.32783203-15.97060547 36.77783203-35.87871093V416.73046875z m-73.50029298 0h-11.58398436c-10.23486327-49.31894531-15.52148438-75.29941406-15.85898438-77.94228516-0.3375-2.64375001-5.39824219-5.51074219-15.18310547-8.71699218L548.13886719 349.81054687000005 469.40820311 216.98144531000003l60.73505861-47.9126953 3.93662109-21.65009767-60.06005859-47.35107422 28.34296875-52.29931641H206V713.82451172h427.72939453c20.30097657 0 36.77783203-16.42148437 36.77783203-36.72246094v-260.31445312z m-96.6128906-47.5751953a23.05634766 23.05634766 0 1 1 0 46.22607421H302.66914063a23.05634766 23.05634766 0 0 1 0-46.22607421h271.2814453z m0 92.22626952a23.05634766 23.05634766 0 1 1 0 46.22607422H302.66914063a23.05634766 23.05634766 0 0 1 0-46.22607422h271.2814453z m0 92.22714844a23.05634766 23.05634766 0 1 1 0 46.2251953H302.66914063a23.05634766 23.05634766 0 0 1 0-46.2251953h271.2814453zM908.66621094 136.78916016000005c0.90000001 7.19824219 1.63037109 14.39648438 1.63037109 22.04384765a169.83193359 169.83193359 0 0 1-1.6875 21.98847657l48.81357422 37.05908203a11.07861328 11.07861328 0 0 1 2.81162109 14.34023437l-46.28232421 77.71816406c-2.7553711 4.94824219-8.99736327 6.74824219-14.05898438 4.94824219l-57.5859375-22.49384765a170.50693359 170.50693359 0 0 1-39.08320312 22.04472656l-8.77236329 59.55292969a11.19111328 11.19111328 0 0 1-11.35986328 9.39199218h-92.45214843a11.19111328 11.19111328 0 0 1-11.35898438-9.39199218l-8.77324219-59.60917969c-14.05898437-5.6241211-26.99296875-13.21611328-39.08320313-21.98847656l-57.52968749 22.49472656a11.41611328 11.41611328 0 0 1-14.11523438-5.0053711l-46.28144531-77.60566406a10.85361328 10.85361328 0 0 1 2.81162109-14.34023437l48.75644532-37.05908203c-0.90000001-7.19824219-1.63124999-14.62148437-1.63125-21.98847657 0-7.42236327 0.73125001-14.84560547 1.6875-22.04384764l-48.81269532-37.05996096a11.13486329 11.13486329 0 0 1-2.8125-14.33935546l46.28320313-77.71816406c2.81074218-4.94824219 8.99736327-6.74824219 14.05810547-4.94824219l57.58593749 22.49384766c12.03398437-8.99736327 24.96796875-16.42060547 39.08320313-22.04472657l8.77324219-59.49755858a11.19111328 11.19111328 0 0 1 11.35986327-9.44736329h92.45126954c5.79199219 0 10.68486327 4.04912109 11.35986328 9.44824219l8.77236329 59.49667968c14.11523438 5.6241211 27.04921875 13.27148438 39.08408202 22.04472657l57.58593751-22.49472657c5.28574219-2.02412108 11.24648437 0 14.05810547 4.9491211l46.28232421 77.71816406a11.13486329 11.13486329 0 0 1-2.8125 14.33935546l-48.7555664 37.11621095z m-171.79980469-56.5734375c-44.59570313 0-80.92353516 35.25996094-80.92353516 78.61816406 0 43.30107422 36.32783203 78.61728516 80.97890625 78.61728516 44.59570313 0 80.86728516-35.25996094 80.86728516-78.61816407 0-43.35732422-36.27246094-78.61728516-80.92353516-78.61728515z"  horiz-adv-x="1024" />

    
    <glyph glyph-name="helpWord" unicode="&#58902;" d="M647.096 585.235h306.988L647.096 896zM624.313 562.453V896H146.519v-105.273h403.879v-426.662h-403.88V-128h807.758V562.389H624.313z m260.272-549.086H216.21v48.317h668.375v-48.317z m0 110.905H216.21v48.381h668.375v-48.38z m0 111.033H216.21v48.317h668.375v-48.317zM69.724 364.13l51.196-45.566V364.13zM69.724 768.776v-382.632h455.075V768.776H69.724z m276.462-331.691h-52.028v53.244h52.028v-53.244z m23.295 136.44c-18.111-13.824-26.878-29.823-25.982-48.062v-10.367h-47.997v14.207c-1.792 24.382 9.47 45.117 33.79 62.524 23.294 18.11 34.557 35.518 33.661 51.9-0.832 25.215-12.863 38.59-36.35 40.254-25.15-0.896-40.765-18.623-46.716-53.244h-48.061c8.703 58.044 39.805 87.034 93.562 87.034 56.252-1.792 85.754-25.534 88.314-71.483 1.792-26.815-12.991-51.07-44.221-72.764z"  horiz-adv-x="1024" />

    
    <glyph glyph-name="loginOut" unicode="&#58903;" d="M751.98 700.2239999999999c28.093-19.964 53.015-42.575 74.846-67.82 21.83-25.266 40.533-52.554 56.143-81.866 15.613-29.312 27.445-60.336 35.532-93.088 8.13-32.747 12.177-65.969 12.177-99.632 0-58.013-11.048-112.414-33.227-163.253-22.138-50.835-52.055-95.11-89.81-132.853-37.747-37.726-82.021-67.673-132.858-89.801-50.797-22.137-105.246-33.228-163.216-33.228-57.409 0-111.512 11.091-162.351 33.228-50.837 22.128-95.286 52.075-133.296 89.8-38.054 37.744-68.021 82.019-89.852 132.854-21.83 50.84-32.747 105.24-32.747 163.253 0 33.054 3.916 65.474 11.697 97.283 7.83 31.817 18.875 62.059 33.227 90.76 14.354 28.68 32.14 55.493 53.32 80.455 21.22 24.94 44.925 47.401 71.107 67.364 13.744 9.98 28.53 13.72 44.448 11.216 15.918-2.5 28.833-10.284 38.835-23.394 9.96-13.087 13.7-27.744 11.22-43.967-2.477-16.222-10.308-29.312-23.397-39.29-39.271-28.683-69.368-63.925-90.288-105.721-20.874-41.79-31.311-86.693-31.311-134.708 0-41.158 7.781-79.995 23.355-116.482 15.611-36.486 36.966-68.295 64.1-95.432 27.14-27.135 58.928-48.642 95.422-64.538 36.486-15.92 75.323-23.854 116.51-23.854 41.139 0 79.973 7.934 116.466 23.854 36.485 15.896 68.276 37.4 95.414 64.538 27.14 27.137 48.665 58.946 64.538 95.432 15.918 36.487 23.878 75.324 23.878 116.482 0 48.645-11.22 94.63-33.663 137.991-22.48 43.336-53.972 79.038-94.499 107.108-13.744 9.355-22.012 22.137-24.792 38.36-2.827 16.224 0.477 31.18 9.83 44.924 9.348 13.09 22.135 21.05 38.358 23.83 16.22 2.829 31.182-0.456 44.883-9.805z m-240.413-345.23c-16.225 0-30.099 5.782-41.664 17.309-11.527 11.547-17.31 25.416-17.31 41.64V769.458c0 16.199 5.783 30.243 17.31 42.095 11.565 11.853 25.438 17.766 41.664 17.766 16.828 0 31.009-5.913 42.53-17.766 11.572-11.852 17.31-25.896 17.31-42.095v-355.515c0-16.224-5.738-30.094-17.31-41.64-11.521-11.526-25.702-17.309-42.53-17.309z m0 0"  horiz-adv-x="1024" />

    
    <glyph glyph-name="superM" unicode="&#58904;" d="M1086.976-128c-118.272 0-212.48 102.4-212.48 224.256 0 125.952 94.72 224.256 212.48 224.256s212.48-102.4 212.48-224.256-94.208-224.256-212.48-224.256z m-35.328 181.248l-35.328 39.424c-7.68 7.68-15.872 11.776-23.552 11.776s-15.872-4.096-23.552-11.776c-11.776-11.776-11.776-35.328 0-47.104l58.88-62.976c7.68-7.68 15.872-11.776 23.552-11.776s15.872 4.096 23.552 11.776l149.504 161.28c11.776 11.776 11.776 35.328 0 47.104-7.68 7.68-15.872 11.776-23.552 11.776s-15.872-4.096-23.552-11.776l-125.952-137.728zM1299.456 277.504c-51.2 67.072-125.952 106.496-212.48 106.496-149.504 0-271.872-130.048-271.872-287.744 0-86.528 35.328-169.472 102.4-224.256H121.856C55.296-128 0-69.12 0 2.048000000000002V765.952C0 837.12 55.296 896 121.856 896h1059.328c62.976 0 118.272-58.88 118.272-130.048v-488.448zM709.12 731.136c-17.92 0-35.84-17.92-35.84-35.84s13.312-35.84 35.84-35.84H1054.72c17.92 0 35.84 17.92 35.84 35.84s-13.312 35.84-35.84 35.84h-345.6zM709.12 534.0160000000001c-17.92 0-35.84-17.92-35.84-35.84s13.312-35.84 35.84-35.84H1054.72c17.92 0 35.84 17.92 35.84 35.84s-13.312 35.84-35.84 35.84h-345.6zM709.12 336.384c-17.92 0-35.84-17.92-35.84-35.84s13.312-35.84 35.84-35.84h67.072c17.92 0 35.84 17.92 35.84 35.84s-13.312 35.84-35.84 35.84h-67.072zM328.704 738.816c-71.68 0-132.608-60.928-132.608-136.192S253.44 465.92 328.704 465.92c71.68 0 132.608 60.928 132.608 136.192S400.896 738.816 328.704 738.816zM548.864 253.952c0 96.768-76.288 172.032-165.888 172.032H282.112c-89.6 0-164.864-78.848-164.864-172.032v-10.752c0-50.176 71.68-50.176 164.864-50.176H378.88c89.6 0 169.984 0 169.984 50.176v10.752z"  horiz-adv-x="1299" />

    
    <glyph glyph-name="reserPwd" unicode="&#58905;" d="M538.21781333 575.9965866699999c0.01479111 23.14581333 19.22048 41.89752889 42.89422222 41.94304h47.58983112c23.70446222-0.04551111 42.90901333-18.79722667 42.92380444-41.94304v-101.91303112h56.28586667v101.91303112c-0.02958222 53.49262222-44.40291555 96.88519111-99.19488 96.89998222h-47.58983111c-54.76124445-0.01479111-99.11978667-43.40622222-99.13457778-96.89998222v-46.95608889h56.25628444v46.95608889h-0.03072zM428.16853333 444.79260445v-153.8207289c0-81.18272 67.32231111-146.90531555 150.33230222-146.90531555h46.29162667c83.00999111 0 150.33344 65.73738667 150.33344 146.90531555V444.79260445H428.16739555z m195.49184-136.83484445v-67.30752a14.85710222 14.85710222 0 0 0-14.99249778-14.66026667 14.84117333 14.84117333 0 0 0-14.99249777 14.66026667v67.30752c-14.11754667 5.78218667-24.05262222 19.40138667-24.05262223 35.25404445 0 21.12284445 17.48423111 38.24412445 39.08949334 38.24412444 21.62119111 0 39.12021333-17.12128 39.12021333-38.24412444 0-15.88337778-9.99537778-29.54695111-24.17208889-35.25404445zM939.7248-19.764337780000005H804.5056v90.15182223h90.15182222a45.11288889 45.11288889 0 0 1 45.06737778 45.06737777v90.16775111h90.15182222v-135.23626666a90.13589333 90.13589333 0 0 0-90.15182222-90.15068445z m0 721.25781333a45.11288889 45.11288889 0 0 1-45.06737778 45.06737778h-90.15182222V836.69902222H939.7248a90.16661333 90.16661333 0 0 0 90.15182222-90.13703111v-135.2192H939.7248v90.15182222z m-676.17336889 0v-90.1370311h-90.13703111V746.57678222a90.16661333 90.16661333 0 0 0 90.13703111 90.13475556h135.23399111v-90.13475556h-90.15068444a45.08330667 45.08330667 0 0 1-45.08330667-45.08330667z m0-586.00789333a45.08330667 45.08330667 0 0 1 45.06737778-45.06737777h90.15182222v-90.15182223H263.53664a90.16661333 90.16661333 0 0 0-90.13703111 90.15068445V205.65333333h90.13703111V115.48444444999996h0.01479111z"  horiz-adv-x="1134" />

    
    <glyph glyph-name="personSetting" unicode="&#58906;" d="M406.10360889 305.70040888999995L255.09660445 154.63651555l-26.8344889 26.89024 151.06389334 151.00814223-42.25706667 42.25706667L143.12561778 180.84977777999995h-0.05575111v-0.05802667l-78.35648-241.11331556 241.11445333 78.29959112h0.05688889l0.05575111 0.05688888v0.05575112L499.82577778 211.97824000000003l-93.72216889 93.72216889z m155.97795556 209.64579556l69.9392 69.94033777 26.83562666-26.83562667-69.99608889-69.8823111 93.77792-93.7221689 111.68881778 111.74343112-162.75797333 162.70222222-111.68768-111.74456889 42.20017778-42.20131555zM793.98684445 831.71100445l-107.11153778-107.16842667 162.75797333-162.75683556 107.22417778 107.11153778L793.98684445 831.71100445z m-36.72064-504.88206223c-19.31946667 0-39.94168889-6.32832-60.33521778-16.77880889L437.79640889 569.12896c10.39473778 20.39466667 16.60928 40.84394667 16.60928 59.65824 0 103.04284445-97.96039111 202.81116445-200.94748444 202.81116445h-1.9205689c-0.39594667 0-12.08888889-11.86474667-18.47296-18.24768 83.10215111-83.10215111 76.26638222-69.60014222 76.26638223-120.55665778 0-41.35367111-66.26759111-106.65984-106.65984-106.65984-8.87011555 0-15.76163555-0.22528-21.46759111-0.22528-28.13383111 0-28.52977778 5.93237333-99.03331556 76.49166222-6.66510222-6.61048889-18.36032-18.19079111-18.36032-18.52984889 1.24245333-103.66520889 99.20170667-202.81230222 202.86805334-202.81230222 18.75626667 0 38.86762667 5.93237333 58.64106666 15.93230222l260.03911111-259.98336c-9.94190222-19.77344-15.76163555-39.65838222-15.76163555-57.85031111 0-103.04398222 97.96039111-202.86805333 200.94634666-202.86805334h1.86481778c0.45056 0 12.14691555 11.92049778 18.41834667 18.3045689-82.98837333 83.10101333-76.15374222 69.54325333-76.15374223 120.55665777 0 41.29678222 66.20842667 106.65984 106.60181334 106.65984 8.81322667 0 15.76277333 0.22528 21.52448 0.22528 28.13383111 0 28.58666667-5.93237333 99.08906666-76.49166222 6.60935111 6.5536 18.19079111 18.07928889 18.3045689 18.47296-1.35623111 103.60945778-99.20284445 202.81230222-202.92608 202.81230222z"  horiz-adv-x="1024" />

    
    <glyph glyph-name="clearErr" unicode="&#58907;" d="M761.856-128h-486.4c-57.856 0-96.256 45.056-96.256 96.256V435.2c0 57.856 45.056 96.256 96.256 96.256h486.4c57.344 0 96.256-44.544 96.256-96.256v-460.8c-0.512-57.344-45.056-102.4-96.256-102.4z m-486.4 582.144c-12.8 0-25.6-6.656-25.6-19.456v-460.8c0-12.8 12.8-25.6 25.6-25.6h486.4c12.8 0 25.6 12.8 25.6 25.6V435.2c0 12.8-12.8 25.6-25.6 25.6h-486.4v-6.656zM134.144 428.544c-38.4 0-76.8 25.6-89.6 64L25.6 530.944c-6.656 25.6-6.656 51.2 6.656 76.8 12.8 19.456 31.744 38.4 51.2 45.056L665.6 850.944c25.6 6.656 51.2 6.656 70.656-6.656 25.6-12.8 38.4-32.256 45.056-57.856L793.6 742.4c19.456-51.2-12.8-102.4-57.856-121.856L160.256 435.2c-6.656-6.656-19.456-6.656-26.112-6.656zM697.856 780.8c-6.656 0-6.656 0 0 0l-588.8-198.656c-6.656 0-6.656-6.656-6.656-12.8v-12.8l12.8-44.544c0-6.656 12.8-12.8 19.456-6.656L716.8 704c12.8 6.656 12.8 12.8 12.8 25.6L716.8 768c0 6.656-6.656 12.8-12.8 12.8h-6.144zM249.856 633.344c-6.144 0-12.8 0-19.456 6.656-6.144 0-12.8 6.656-12.8 19.456l-25.6 57.856c-6.656 25.6 0 45.056 6.656 70.656 12.8 19.456 32.256 38.4 51.2 45.056l179.2 57.344c44.544 12.8 96.256-6.656 115.2-57.856l19.456-57.856c6.656-6.656 0-19.456 0-32.256-6.656-6.144-19.456-12.8-25.6-12.8L262.656 633.344h-12.8z m204.8 185.856l-179.2-64c-6.656 0-6.656-6.144-6.656-6.144V742.4l6.656-25.6 198.144 70.656-6.656 25.6C467.456 819.2 460.8 819.2 454.656 819.2z m524.8-275.456l-128-6.656c-12.8 0-19.456 6.656-25.6 19.456 6.656 12.8 12.8 19.456 25.6 19.456l128 6.144c12.8 0 19.456-6.144 25.6-19.456 0-12.288-12.8-18.944-25.6-18.944z m-12.8 140.8l-109.056-64c-12.8-6.144-25.6 0-32.256 6.656-6.656 12.8 0 25.6 6.656 32.256l109.056 64c12.8 6.656 25.6 0 32.256-6.656 6.144-12.8-0.512-25.6-6.656-32.256zM632.32 230.91200000000003c-57.856 0-104.96-47.104-104.96-104.96s47.104-104.96 104.96-104.96 104.96 47.104 104.96 104.96c0 58.368-47.104 104.96-104.96 104.96z m0-170.496c-7.168 0-13.312 5.632-13.312 13.312 0 7.168 5.632 13.312 13.312 13.312s13.312-5.632 13.312-13.312c0-7.168-6.144-13.312-13.312-13.312z m0 131.072c7.168 0 13.312-5.632 13.312-13.312v-78.848H619.52v78.848c-0.512 7.68 5.632 13.312 12.8 13.312zM701.44 358.4H327.68c-14.336 0-25.6 11.776-25.6 25.6s11.264 25.6 25.6 25.6h373.76c14.336 0 25.6-11.776 25.6-25.6 0-14.336-11.264-25.6-25.6-25.6zM701.44 261.12H327.68c-14.336 0-25.6 11.776-25.6 25.6s11.264 25.6 25.6 25.6h373.76c14.336 0 25.6-11.776 25.6-25.6 0-14.336-11.264-25.6-25.6-25.6zM481.28 153.60000000000002H327.68c-14.336 0-25.6 11.776-25.6 25.6 0 14.336 11.264 25.6 25.6 25.6h153.6c13.824 0 25.6-11.776 25.6-25.6 0-14.336-11.264-25.6-25.6-25.6zM481.28 51.200000000000045H327.68c-14.336 0-25.6 11.776-25.6 25.6 0 14.336 11.264 25.6 25.6 25.6h153.6c13.824 0 25.6-11.776 25.6-25.6 0-14.336-11.264-25.6-25.6-25.6z"  horiz-adv-x="1024" />

    
    <glyph glyph-name="msg" unicode="&#58908;" d="M613.33530521 849.51396791c0 53.73127811-45.4045011 97.40758018-101.33530521 97.40758021-55.77369511 0-101.33530521-43.67630209-101.33530521-97.40758021 0-5.49881501 0.47132701-10.84052103 1.41398101-16.02511802-139.82701027-46.8184821-241.47653348-166.84975834-241.47653347-337.15591467V308.58767986s-13.04004703-163.39336033-62.52938214-164.96445032c-29.37938307 0-51.84597011-21.68104205-51.84597009-48.70379011 0-27.17985706 22.62369604-48.70379009 50.58909809-48.7037901h810.21111462c28.12251105 0 50.58909811 21.68104205 50.58909809 48.7037901s-22.62369604 48.70379009-50.58909809 48.70379011c-50.58909811 0-63.15781813 164.96445033-63.15781814 164.96445032V496.49004422c0 170.46326533-94.73672719 290.49454158-242.10496947 337.15591466 1.09976302 5.18459701 1.57108999 10.36919402 1.57109001 15.86800903z m-101.49241422-1028.43551603c-83.58198817 0-151.45307631 66.77132512-151.61018528 149.7248773h303.2203706c0-82.63933418-67.24265214-149.72487729-151.61018532-149.7248773z m0 0"  horiz-adv-x="1024" />

    
    <glyph glyph-name="emailS" unicode="&#58910;" d="M819.2 767.04H32v-163.2h787.2v163.2zM184.64 640.3199999999999c-24.96 0-45.6 20.16-45.6 45.6 0 24.96 20.64 45.6 45.6 45.6s45.6-20.16 45.6-45.6-20.16-45.6-45.6-45.6zM364.16 319.20000000000005H32v-289.44h333.12c-0.48 2.88-0.96 6.24-0.96 9.6V319.20000000000005zM819.2 541.44H32v-159.36h332.16v36.96c0 24.48 20.16 44.64 44.64 44.64h410.4v77.76zM184.64 418.08c-24.96 0-45.6 20.16-45.6 45.6 0 24.96 20.64 45.6 45.6 45.6s45.6-20.16 45.6-45.6c0-24.96-20.16-45.6-45.6-45.6zM953.6 404.16H453.92c-21.12 0-38.4-17.28-38.4-38.4v-326.4c0-21.12 17.28-38.4 38.4-38.4H953.6c21.12 0 38.4 17.28 38.4 38.4v326.4c0 21.6-17.28 38.4-38.4 38.4zM899.36 273.6c-1.44-5.28-4.8-10.08-9.6-12.48l-171.84-99.36c-3.84-2.88-8.16-4.8-12.96-4.8h-0.48c-4.8 0-9.6 1.44-12.96 4.8l-171.84 99.36c-4.8 2.88-8.16 7.2-9.6 12.48-1.44 5.28-0.48 11.04 1.92 15.84 3.84 6.72 10.56 10.56 18.24 10.56 3.84 0 7.2-0.96 10.56-2.88l164.16-94.56 164.16 94.56c3.36 1.92 6.72 2.88 10.56 2.88 7.68 0 14.4-3.84 18.24-10.56 1.92-4.8 2.88-10.56 1.44-15.84z"  horiz-adv-x="1024" />

    
    <glyph glyph-name="shenheyonghu1" unicode="&#58911;" d="M261.84213333 727.13493333c-29.70133333 0-53.632-24.01706667-53.632-53.83146666 0-29.80906667 23.93066667-53.82293333 53.632-53.82293334h470.10133334c29.49013333 0 53.6384 24.01493333 53.6384 53.824 0 29.8144-23.93173333 53.8304-53.63733334 53.8304h-91.8816V844.02133333C640.064 891.424 601.81333333 929.8112 554.58773333 929.8112H439.20213333c-47.22666667 0-85.46773333-38.38826667-85.46773333-85.7888V727.136h-91.89333333v-0.00106667zM496.89066667 881.55733333c31.2 0 56.63573333-25.52426667 56.63573333-56.84266666 0-31.3088-25.43573333-56.8288-56.63573333-56.8288-31.1968 0-56.6208 25.52-56.6208 56.82986666 0 31.3184 25.424 56.8416 56.6208 56.8416z m253.4304-606.16106666c-120.31466667 0-217.80693333-97.84533333-217.80693334-218.60693334 0-120.75733333 97.49333333-218.6016 217.80693334-218.6016 120.31786667 0 217.8016 97.8432 217.8016 218.6016 0 120.7616-97.48373333 218.60693333-217.8016 218.60693334z m152.0192-246.4512H750.32106667c-15.376 0-27.73973333 12.41173333-27.73973334 27.84426666V203.48693333000006c0 15.4272 12.36373333 27.84426667 27.73973334 27.84426667 15.37493333 0 27.74293333-12.416 27.74293333-27.84426667v-118.8544h124.27626667c15.376 0 27.74186667-12.4032 27.74186666-27.84213333 0-15.43146667-12.36586667-27.84426667-27.74186666-27.84426667z m-763.10933334-54.76266667V725.15733333c0 11.3728 9.2192 20.62506667 20.5504 20.62506667h137.42293334V829.44426667H159.78133333c-57.2928 0-103.904-46.78186667-103.904-104.28586667v-750.976c0-57.49973333 46.61013333-104.27946667 103.904-104.27946667H496.896v83.66186667H159.78133333c-11.33226667 0-20.5504 9.248-20.5504 20.61866667z m715.3248 750.97493333v-420.23466666h83.3536v420.23466666c0 57.50293333-46.61013333 104.28586667-103.9008 104.28586667H699.25866667v-83.6608h134.75093333c11.32906667 0.00106667 20.54613333-9.25226667 20.54613333-20.62506667zM242.4256 530.47893333h508.93866667v-83.6608h-508.93866667v83.6608z m0-213.25013333h299.936v-83.6608h-299.936v83.6608z"  horiz-adv-x="1024" />

    
    <glyph glyph-name="piliangshanchu" unicode="&#58912;" d="M756.417 434.959c-103.36 0-187.275-83.827-187.339-187.142-0.064-103.346 84.075-187.335 187.596-187.303 103.07 0.032 187.017 83.922 187.178 187.013 0.128 103.38-83.914 187.399-187.435 187.432z m100.986-288.275c-8.568-8.476-22.432-8.476-31 0-11.873 11.784-39.758 39.619-69.954 69.797-30.164-30.18-58.05-58.014-69.924-69.797-8.568-8.476-22.432-8.476-31 0-8.535 8.475-8.535 22.218 0 30.725 11.939 11.814 39.856 39.682 70.117 69.925-30.326 30.338-58.339 58.432-70.18 70.374-8.472 8.574-8.472 22.442 0 31.013 8.47 8.541 22.205 8.541 30.709 0 11.841-12.006 39.919-40.13 70.277-70.534 30.388 30.404 58.466 58.528 70.308 70.534 8.471 8.541 22.205 8.541 30.677 0 8.471-8.572 8.471-22.44 0-31.013-11.808-11.942-39.823-40.036-70.148-70.374 30.26-30.243 58.179-58.112 70.117-69.925 8.536-8.507 8.536-22.25 0.001-30.725zM529.255 346.958c0 11.172-9.08 20.258-20.248 20.258H320.449c-11.168 0-20.248-9.086-20.248-20.258 0-11.205 9.08-20.258 20.248-20.258h188.558c11.168 0 20.248 9.053 20.248 20.258z m58.595 89.38c0 11.173-9.08 20.259-20.248 20.259H320.449c-11.168 0-20.248-9.086-20.248-20.258 0-11.173 9.08-20.26 20.248-20.26h247.154c11.167 0.002 20.247 9.087 20.247 20.26zM320.449 277.804c-11.168 0-20.248-9.054-20.248-20.26 0-11.171 9.08-20.258 20.248-20.258h109.393c11.198 0 21.531 9.087 21.531 20.258 0 11.206-9.049 20.26-20.248 20.26H320.45z m256.876-164.765h-297.18c-19.769 0-35.812 16.086-35.812 35.862V489.377c0 19.809 16.044 35.861 35.811 35.861h340.342c19.767 0 35.812-16.051 35.812-35.861v-52.429a204.329 204.329 0 0 0 53.75 13.647v56.729c0 39.585-32.09 71.658-71.656 71.658h-70.18v24.946c0 39.619-32.09 71.691-71.656 71.691H120.402c-39.566 0-71.655-32.072-71.655-71.691v-376.305c0-39.62 32.089-71.724 71.655-71.724h70.18v-24.913c0-39.619 32.09-71.692 71.656-71.692h386.68c-27.663 12.521-52.084 30.98-71.593 53.744zM138.31 209.674c-19.767 0-35.812 16.052-35.812 35.83v340.51c0 19.777 16.046 35.86 35.812 35.86h340.34c19.769 0 35.812-16.052 35.812-35.86v-7.033H262.238c-39.567 0-71.655-32.073-71.655-71.658v-297.649h-52.274z"  horiz-adv-x="1024" />

    
    <glyph glyph-name="huanyuan" unicode="&#58913;" d="M933.82050781 327.78164061999996H568.21835938v-365.60214843l140.61621093 140.61621094 168.73945313-168.73857422 84.36884765 84.36884765-168.73857421 168.73945313 140.61621093 140.61621094zM146.36972656 834L62 749.63027344l168.73945313-168.73945313-140.61621094-140.61621093h365.60214844V805.87675781l-140.61621094-140.61621094L146.36972656 834z m646.83457031-253.10917969l168.73857422 168.73945313L877.57402344 834 708.83457031 665.26054688l-140.61621093 140.61621093v-365.60214843h365.60214843l-140.61621094 140.61621093z m-562.46484375-393.72539062L62 18.42597655999998l84.36972656-84.36884765 168.73945313 168.73857422 140.61621094-140.61621094V327.78164061999996H90.12324219l140.61621094-140.61621093z"  horiz-adv-x="1024" />

    
    <glyph glyph-name="xinzeng" unicode="&#58916;" d="M748.22544031 174.78803813000002V271.28296313a20.29217156 20.29217156 0 0 1-20.22654656 20.35873406h-8.60624344a20.25935906 20.25935906 0 0 1-20.25935906-20.35873406v-96.4968H602.86805375a20.29217156 20.29217156 0 0 1-20.29217156-20.32498407v-8.60718093a20.25935906 20.25935906 0 0 1 20.29217156-20.32498407H699.13422875v-96.49679906a20.29217156 20.29217156 0 0 1 20.25935906-20.32498406h8.60624344a20.25935906 20.25935906 0 0 1 20.25935906 20.32498406V125.56276405999995h96.2652375a20.29217156 20.29217156 0 0 1 20.29217156 20.32498407v8.60624343a20.25935906 20.25935906 0 0 1-20.29217156 20.32592157H748.22544031zM540.4681025-95.99924999999996H113.46906125a48.430275 48.430275 0 0 0-48.36465 48.5305875V667.76265375a48.4968375 48.4968375 0 0 0 48.36465 48.56246156h69.25213313v-196.86547125h517.43865843V716.32511531h69.25307063a48.4630875 48.4630875 0 0 0 48.3637125-48.52871156v-245.26293375A298.65914156 298.65914156 0 0 1 540.4681025-95.99924999999996z m112.55147437 664.94948062H229.72647031V728.2754184400001a57.66558 57.66558 0 0 0 52.96589625 61.30682718h54.65339531A116.06053406 116.06053406 0 0 0 441.42318031 864a116.02772156 116.02772156 0 0 0 104.07741844-74.31744188h54.65339531a57.66558 57.66558 0 0 0 52.96495781-61.34057718v-159.35987532zM182.72025688 347.58602813000005a24.52966875 24.52966875 0 0 1 24.56248124-24.59623032h209.57796094a24.59623125 24.59623125 0 0 1 0 49.15871156h-209.57796093a24.52966875 24.52966875 0 0 1-24.56248126-24.59529375z m-1e-8-196.70047126a24.46310625 24.46310625 0 0 1 24.49685625-24.56248031h162.70299751a24.59623125 24.59623125 0 0 1 0 49.15871156H207.18336313a24.59623125 24.59623125 0 0 1-24.49685625-24.59623125z m152.87144344 491.84961563a36.91028344 36.91028344 0 1 1-35.28841031 36.87840938 36.11622188 36.11622188 0 0 1 35.28747281-36.87747188z m211.69671 0a36.91028344 36.91028344 0 1 1-35.28934781 36.87840938 36.11622188 36.11622188 0 0 1 35.28841031-36.87747188z m172.203615-738.7344225a239.9998125 239.9998125 0 1 0 239.40356344 239.9998125 239.7016875 239.7016875 0 0 0-239.40356344-239.9998125z"  horiz-adv-x="1024" />

    
    <glyph glyph-name="xianshitiaozhengshunxu" unicode="&#58917;" d="M921.09130859 204.54492187000005a40.90869141 40.90869141 0 0 1-40.90957031-40.9086914v-147.81796875H731.27304688a40.90869141 40.90869141 0 0 1-1e-8-81.81826172h189.81738282A40.90869141 40.90869141 0 0 1 962-25.09130859000004v188.72753906a40.90869141 40.90869141 0 0 1-40.90869141 40.90957031z m0 629.45507813H731.27304688a40.90869141 40.90869141 0 0 1-1e-8-81.81738281h148.90869141v-152.18261719a40.90869141 40.90869141 0 1 1 81.81826172 0V793.09130859A40.90869141 40.90869141 0 0 1 921.09130859 834zM102.90869141 559.0913085899999a40.90869141 40.90869141 0 0 1 40.90957031 40.90869141V752.18261719h151.09101562a40.90869141 40.90869141 0 0 1 0 81.81738281H102.90869141A40.90869141 40.90869141 0 0 1 62 793.09130859V600a40.90869141 40.90869141 0 0 1 40.90869141-40.90869141zM294.91015625 15.817382810000026H143.81738281V163.63623047a40.90869141 40.90869141 0 1 1-81.81826172 0v-188.72753906A40.90869141 40.90869141 0 0 1 102.90869141-66H294.91015625a40.90869141 40.90869141 0 1 1 0 81.81738281z m73.63652344 248.18203125h385.09013672a40.90869141 40.90869141 0 1 1 0 81.81738282H269.81826172a40.90869141 40.90869141 0 0 1-29.45478516-69.81767579l151.63681641-151.6359375a40.90869141 40.90869141 0 1 1 57.81796875 57.81796875z m286.90839843 239.99941406H269.81826172a40.90869141 40.90869141 0 0 1 0-81.81738281h484.36347656a40.90869141 40.90869141 0 0 1 28.90898438 68.72695313l-151.6359375 152.72753906a40.90869141 40.90869141 0 0 1-57.81884766-57.81884766z"  horiz-adv-x="1024" />

    
    <glyph glyph-name="xinzengziyuan" unicode="&#58918;" d="M236.91021275 590.3231051800001H677.05362963v58.4617529H236.91021275v-58.46053926z m0-116.94777836H677.05362963v58.46053926H236.91021275v-58.46053926z m550.1795745-146.15377541c19.00301275 0 37.38586075-2.82168889 55.017472-7.66407111v95.38157985h-55.017472V824.14341689h-660.2145185v-409.22984297h-55.01868564v-350.79357629c0-48.44202667 36.94652682-87.69202252 82.54016474-87.69202252h442.31824118a243.58032118 243.58032118 0 0 0-29.67081718 116.92229214c-0.02669985 129.16902875 98.4884717 233.87128415 220.0456154 233.87128416zM181.89274075 707.22112475h550.17836088v-292.30755083H181.89274075V707.21991111z m605.1970465-438.4601126c-91.16178963 0-165.05362963-78.52790518-165.05362962-175.38525867S695.92799763-82.03377778000004 787.08978725-82.03377778000004s165.05362963 78.52669155 165.05362964 175.38404503-73.89305363 175.40953125-165.05362964 175.40953127z m26.79694223-235.63226074l-38.88833423-41.34836149-1.65660443 1.7609766-1.65781807-1.75976297-38.91382045 41.34714786 1.68330429 1.75976296-56.75296237 60.24821571 38.9405203 41.34836147 56.67407645-60.22272947 84.19676918 89.4529991 38.88833422-41.32166163-84.19676919-89.47848533 1.6833043-1.78646281z"  horiz-adv-x="1024" />

    
    <glyph glyph-name="guidang" unicode="&#58920;" d="M905.75 834H675.09248047v-900H905.75c33.75 0 56.25 24.17167969 56.25 60.42832031V773.57167969C962 809.82832031 933.84248047 834 905.75 834z m-56.25-471.15H748.25c-11.25 0-22.5 12.08496094-22.5 24.17167969s11.25 24.17080078 22.5 24.17080078H849.5c11.25 0 22.5-12.08496094 22.5-24.17080078s-11.25-24.17167969-22.5-24.17167969z m0 138.92167969H748.25c-11.25 0-22.5 12.08496094-22.5 24.17080078s11.25 24.17167969 22.5 24.17167969H849.5c11.25 0 22.5-12.08496094 22.5-24.17167969s-11.25-24.17080078-22.5-24.17080078z m0 138.92080078H748.25c-11.25 0-22.5 12.08583984-22.5 24.17167969 5.65751953 12.08583984 11.25 24.17167969 22.5 24.17167968H849.5c11.25 0 22.5-12.08583984 22.5-24.17167968S860.75 640.69335938 849.5 640.69335938zM388.25 834v-900h247.5V834H388.25z m174.34248047-471.15H461.40751953c-11.31503906 0-22.5 12.08496094-22.5 24.17167969s11.18496094 24.17080078 22.5 24.17080078h101.18496094c11.31503906 0 22.5-12.08496094 22.5-24.17080078s-11.25-24.17167969-22.5-24.17167969z m0 138.92167969H461.40751953c-11.31503906 0-22.5 12.08496094-22.5 24.17080078s11.18496094 24.17167969 22.5 24.17167969h101.18496094c11.31503906 0 22.5-12.08496094 22.5-24.17167969s-11.25-24.17080078-22.5-24.17080078z m0 138.92080078H461.40751953c-11.31503906 0-22.5 12.08583984-22.5 24.17167969s11.18496094 24.17167969 22.5 24.17167968h101.18496094c11.31503906 0 22.5-12.08583984 22.5-24.17167968s-11.25-24.17167969-22.5-24.17167969zM118.25 834C84.5 834 62 809.82832031 62 773.57167969v-779.14335938C62-35.785839839999994 90.15751953-66 118.25-66h225V834H118.25z m157.5-471.15H174.5c-11.25 0-22.5 12.08496094-22.5 24.17167969s11.25 24.17080078 22.5 24.17080078h101.25c11.25 0 16.84248047-12.08496094 16.84248047-24.17080078S287 362.85 275.75 362.85z m0 138.92167969H174.5c-11.25 0-22.5 12.08496094-22.5 24.17080078s11.25 24.17167969 22.5 24.17167969h101.25c11.25 0 22.5-12.08496094 22.5-24.17167969s-11.25-24.17080078-22.5-24.17080078z m0 138.92080078H174.5c-11.25 0-22.5 12.08583984-22.5 24.17167969s11.25 24.17167969 22.5 24.17167968h101.25c11.25 0 22.5-12.08583984 22.5-24.17167968S287 640.69335938 275.75 640.69335938z"  horiz-adv-x="1024" />

    
    <glyph glyph-name="weixingongzhongpingtai" unicode="&#58909;" d="M980.992 53.76H742.4c-18.944 28.16-37.376 89.6-74.24 89.6h-111.616c-37.376 0-55.808-60.928-74.752-89.6H243.2c-18.432 0-33.28-14.848-33.28-33.28s14.848-50.688 33.28-50.688h737.792c18.432 0 33.28 32.256 33.28 50.688s-14.848 33.28-33.28 33.28zM976.896 858.624H246.784C160.768 858.624 90.624 788.48 90.624 701.952v-384c0-86.528 70.144-156.672 156.16-156.672h730.112c86.016 0 156.16 70.144 156.16 156.672v384c0 86.528-69.632 156.672-156.16 156.672z m81.92-515.072c0-55.296-50.176-99.84-111.616-99.84H276.992c-61.44 0-111.616 44.544-111.616 99.84v332.8c0 55.296 50.176 99.84 111.616 99.84H947.2c61.44 0 111.616-44.544 111.616-99.84v-332.8zM500.224 593.408m-22.016 0a22.016 22.016 0 1 1 44.032 0 22.016 22.016 0 1 1-44.032 0ZM650.24 484.352m-16.896 0a16.896 16.896 0 1 1 33.792 0 16.896 16.896 0 1 1-33.792 0ZM586.752 594.432m-22.016 0a22.016 22.016 0 1 1 44.032 0 22.016 22.016 0 1 1-44.032 0ZM731.136 484.352m-16.896 0a16.896 16.896 0 1 1 33.792 0 16.896 16.896 0 1 1-33.792 0ZM893.44 711.68H330.752c-48.128 0-87.04-33.792-87.04-75.776V384c0-41.984 38.912-75.776 87.04-75.776h562.688c48.128 0 87.04 33.792 87.04 75.776V635.904c0 41.984-38.912 75.776-87.04 75.776z m-341.504-280.064c-18.432 0-32.256 2.56-50.688 7.168L450.56 413.696l13.824 43.52c-36.864 25.088-57.344 57.344-57.344 96.768 0 66.56 64.512 119.808 142.848 122.368 71.168 0 133.632-44.032 144.896-101.376H680.96c-66.56 0-122.368-50.688-119.808-112.64 0-11.264 2.048-20.48 4.608-29.696h-13.824z m214.016-50.688l11.264-36.864-38.912 20.992c-15.872-2.56-29.696-7.168-43.52-7.168-69.12 0-122.368 46.08-122.368 103.424s52.736 103.424 122.368 103.424c64.512 0 122.368-46.08 122.368-103.424-0.512-31.744-23.552-61.44-51.2-80.384z"  horiz-adv-x="1195" />

    
    <glyph glyph-name="tishi" unicode="&#58914;" d="M512 870.4C243.2 870.4 25.6 652.8 25.6 384S243.2-102.4 512-102.4 998.4 115.2 998.4 384 780.8 870.4 512 870.4z m-1.536-833.024c-38.912 0-70.144 31.232-70.144 70.144s31.232 70.144 70.144 70.144 70.144-31.232 70.144-70.144-31.232-70.144-70.144-70.144z m92.16 522.24v-2.048s-59.392-275.968-59.392-276.48c0 0 4.096 20.992 0 0s-14.336-32.256-32.256-32.256-27.136 13.312-32.768 34.816c-5.632 20.992-58.368 267.776-58.368 267.776v8.704c-1.024 6.144-2.048 12.288-2.048 18.944 0 51.712 41.984 94.208 94.208 94.208 51.712 0 94.208-41.984 94.208-94.208-1.536-6.656-2.56-13.312-3.584-19.456z m0 0"  horiz-adv-x="1024" />

    
    <glyph glyph-name="energySave" unicode="&#58915;" d="M934.912 210.94399999999996c-22.528-34.816-42.496-71.68-67.072-104.448-62.976-82.944-145.92-126.464-252.928-123.904-102.4 2.56-204.288 1.024-306.688-0.512-31.744-0.512-42.496 10.24-41.472 41.984 2.048 81.408 1.536 162.816 0.512 244.224-0.512 27.136 9.216 37.376 36.352 36.864 85.504-1.024 171.52-0.512 257.536-0.512 91.648 0 111.616-14.336 138.752-104.96 15.872 22.016 30.72 40.448 43.008 60.416 59.904 98.304 131.072 99.84 192.512 4.096l-0.512-53.248m-627.2-189.44h38.4c83.456 0 167.424 3.584 250.88-0.512 143.872-7.68 229.888 69.632 290.304 187.904 15.872 31.232 7.168 61.44-19.968 77.312-27.136 15.872-57.344 7.68-76.8-22.016-15.872-23.552-29.696-49.152-46.592-71.68-29.696-38.912-68.608-59.392-119.808-57.344-59.392 2.048-118.784-0.512-178.176 1.536-11.264 0.512-31.232 10.24-32.256 17.408-2.56 22.528 17.92 19.968 32.768 19.968 54.784 0.512 110.08 0 164.864 0 36.352 0 51.2 20.992 37.888 55.296-10.752 27.648-33.28 35.84-60.928 35.84H324.096c-5.12 0-10.24-1.536-16.896-2.048 0.512-79.872 0.512-157.696 0.512-241.664m481.792 758.784c3.584-14.336 9.728-28.672 9.728-43.52 0-36.864 11.264-87.552-8.192-107.52-18.944-19.456-69.632-9.728-106.496-9.728-106.496-1.024-213.504 0.512-320-1.024-28.16-0.512-40.448 7.68-37.888 37.376 3.584 41.472 4.608 82.944 7.168 123.904l455.68 0.512M561.664 737.28H376.32v-69.12h185.344V737.28m-472.576-413.696h150.528c1.536-3.584 4.096-6.144 4.096-9.216 0.512-115.2 0.512-229.888 0.512-345.088 0-3.072-2.048-6.144-3.072-9.216H89.088v363.52m117.76-69.632c-17.408 13.824-28.16 28.672-36.352 27.136-11.264-2.048-20.48-16.384-30.72-25.6 9.728-9.728 17.92-24.576 29.184-27.136 8.192-1.536 19.968 12.8 37.888 25.6m355.328 154.624c-67.072 0-134.144 1.024-201.728-0.512-26.112-0.512-35.328 9.216-34.304 34.816 1.536 31.744 1.536 64 0 95.744-1.024 23.04 9.216 30.72 31.232 30.72 136.704-0.512 272.896-0.512 409.6 0 24.576 0 33.28-9.216 32.768-33.28-1.024-31.744-1.024-64 0-95.744 1.024-24.576-9.216-32.768-33.28-32.768-67.584 2.048-135.68 1.024-204.288 1.024m-0.512 121.344H376.832V460.8h184.832V529.9200000000001m199.168-165.888c-16.384-19.456-33.28-38.912-53.248-62.464-41.984 56.32-103.424 55.808-165.888 54.784-68.608-1.024-137.728-0.512-206.336-0.512v8.192h425.472z"  horiz-adv-x="1024" />

    
    <glyph glyph-name="onlineData" unicode="&#58921;" d="M233.472 456.704c-19.968 0-35.84-16.384-35.84-35.84v-163.84c0-19.968 16.384-35.84 35.84-35.84h8.192c19.968 0 35.84 16.384 35.84 35.84v163.84c0 19.968-16.384 35.84-35.84 35.84h-8.192zM241.664 216.06399999999996h-8.192c-22.528 0-40.448 18.432-40.448 40.448v163.84c0 22.528 18.432 40.448 40.448 40.448h8.192c22.528 0 40.448-18.432 40.448-40.448v-163.84c0-22.528-17.92-40.448-40.448-40.448z m-8.192 236.032c-17.408 0-31.744-14.336-31.744-31.744v-163.84c0-17.408 14.336-31.744 31.744-31.744h8.192c17.408 0 31.744 14.336 31.744 31.744v163.84c0 17.408-14.336 31.744-31.744 31.744h-8.192z m143.872 65.536c-19.968 0-35.84-16.384-35.84-35.84v-225.28c0-19.968 16.384-35.84 35.84-35.84h8.192c19.968 0 35.84 16.384 35.84 35.84v225.28c0 19.968-16.384 35.84-35.84 35.84h-8.192zM385.024 216.06399999999996h-8.192c-22.528 0-40.448 18.432-40.448 40.448v225.28c0 22.528 18.432 40.448 40.448 40.448h8.192c22.528 0 40.448-18.432 40.448-40.448v-225.28c0.512-22.528-17.92-40.448-40.448-40.448z m-7.68 296.96c-17.408 0-31.744-14.336-31.744-31.744v-225.28c0-17.408 14.336-31.744 31.744-31.744h8.192c17.408 0 31.744 14.336 31.744 31.744V481.28c0 17.408-14.336 31.744-31.744 31.744h-8.192z m140.288 67.584c-19.968 0-35.84-16.384-35.84-35.84v-287.744c0-19.968 16.384-35.84 35.84-35.84h8.192c19.968 0 35.84 16.384 35.84 35.84V544.256c0 19.968-16.384 35.84-35.84 35.84h-8.192zM525.824 216.06399999999996h-8.192c-22.528 0-40.448 18.432-40.448 40.448V544.256c0 22.528 18.432 40.448 40.448 40.448h8.192c22.528 0 40.448-18.432 40.448-40.448v-287.744c0-22.528-17.92-40.448-40.448-40.448z m-8.192 359.936c-17.408 0-31.744-14.336-31.744-31.744v-287.744c0-17.408 14.336-31.744 31.744-31.744h8.192c17.408 0 31.744 14.336 31.744 31.744V544.256c0 17.408-14.336 31.744-31.744 31.744h-8.192zM672.256 167.42399999999998H135.68c-8.192 0-14.336 6.656-14.336 14.336V764.928c0 8.192 6.656 14.336 14.336 14.336h936.96c8.192 0 14.336-6.656 14.336-14.336v-131.072c43.008-12.8 82.432-34.304 116.736-61.952v261.12C1203.712 865.28 1177.6 891.392 1145.344 891.392H62.976C30.72 891.392 4.608 865.28 4.608 833.024V112.63999999999999c0-32.256 26.112-58.368 58.368-58.368h689.152c-34.304 31.744-61.44 70.144-79.872 113.152zM762.88 49.66399999999999H62.976C28.16 49.66399999999999 0 77.82399999999996 0 112.63999999999999V833.024C0 867.84 28.16 896 62.976 896h1082.88c34.816 0 62.976-28.16 62.976-62.976v-270.848l-7.168 6.144c-34.304 27.648-73.216 48.128-115.2 60.928l-3.072 1.024V764.928c0 5.632-4.608 10.24-10.24 10.24h-936.96c-5.632 0-10.24-4.608-10.24-10.24v-583.168c0-5.632 4.608-10.24 10.24-10.24h539.136l1.024-2.56c18.432-42.496 45.056-79.872 78.848-111.616l7.68-7.68zM62.976 887.296C33.28 887.296 8.704 862.72 8.704 833.024V112.63999999999999c0-29.696 24.064-53.76 53.76-53.76h677.888c-30.208 30.208-54.272 65.536-71.68 104.448H135.68c-10.752 0-18.944 8.704-18.944 18.944V764.928c0 10.752 8.704 18.944 18.944 18.944h936.96c10.752 0 18.944-8.704 18.944-18.944v-128c38.912-12.288 75.264-31.232 107.52-55.808V833.024c0 29.696-24.064 53.76-53.76 53.76L62.976 887.296zM987.136 562.1759999999999c-143.36 0-260.608-116.736-260.608-260.608s116.736-260.608 260.608-260.608 260.608 116.736 260.608 260.608-116.736 260.608-260.608 260.608z m151.04-218.624c-4.096 0-8.704 0.512-12.8 1.536L1062.912 240.64c14.336-10.24 23.04-26.624 23.04-44.032 0-29.696-24.064-54.272-54.272-54.272-29.696 0-54.272 24.064-54.272 54.272 0 8.192 2.048 15.872 5.12 23.552l-91.136 67.584c-8.704-4.096-18.432-5.12-28.16-3.584l-24.576-40.96c6.144-7.68 9.728-17.408 9.728-27.136 0-24.064-19.456-44.032-44.032-44.032-24.064 0-44.032 19.456-44.032 44.032 0 24.064 19.456 44.032 44.032 44.032 2.048 0 4.096 0 6.656-0.512l23.552 39.936c-8.704 9.216-13.312 21.504-13.312 33.792 0 27.136 22.016 49.664 49.664 49.664s49.664-22.016 49.664-49.664c0-8.192-2.048-15.872-5.632-22.528l89.6-66.56c8.192 4.608 16.896 7.168 26.112 7.168l65.024 109.056c-14.336 12.288-20.992 27.648-20.992 47.104 0 34.816 28.16 62.976 62.976 62.976 34.816 0 62.976-28.16 62.976-62.976 0.512-35.84-27.648-64-62.464-64zM805.376 171.51999999999998c24.064 0 44.032 19.456 44.032 44.032 0 9.728-3.584 19.456-9.728 27.136l24.576 40.96c9.728-1.536 19.456 0 28.16 3.584l91.136-67.584c-3.584-7.168-5.12-15.36-5.12-23.552 0-29.696 24.064-54.272 54.272-54.272 29.696 0 54.272 24.064 54.272 54.272 0 17.408-8.704 33.792-23.04 44.032l62.464 104.448c4.096-1.024 8.192-1.536 12.8-1.536 34.816 0 62.976 28.16 62.976 62.976s-28.16 62.976-62.976 62.976c-34.816 0-62.976-28.16-62.976-62.976 0-19.456 7.168-34.816 20.992-47.104l-65.024-109.056c-9.216 0-18.432-2.56-26.112-7.168l-89.6 66.56c3.584 7.168 5.632 14.848 5.632 22.528 0 27.136-22.016 49.664-49.664 49.664s-49.664-22.016-49.664-49.664c0-12.8 5.12-25.088 13.312-33.792l-23.552-39.936c-2.048 0.512-4.096 0.512-6.656 0.512-24.064 0-44.032-19.456-44.032-44.032-0.512-23.552 19.456-43.008 43.52-43.008z m10.752 77.312l30.72 51.712-2.56 2.56c-8.192 7.68-13.312 18.432-13.312 30.208 0 22.528 18.432 40.96 40.96 40.96s40.96-18.432 40.96-40.96c0-7.68-2.048-14.848-6.144-21.504l-2.048-3.584 100.864-74.752 2.56 1.536c7.168 4.608 15.872 7.168 24.576 7.168h4.608l71.68 119.808-3.072 2.56c-14.336 11.264-20.992 24.576-20.992 42.496 0 29.696 24.064 53.76 53.76 53.76s53.76-24.064 53.76-53.76-24.064-53.76-53.76-53.76c-4.608 0-9.216 0.512-13.824 1.536l-3.072 1.024-70.144-117.76 4.096-2.048c13.824-8.192 22.016-23.04 22.016-38.912 0-25.088-19.968-45.056-45.056-45.056s-45.056 19.968-45.056 45.056c0 7.68 2.048 15.36 6.144 22.528l2.048 3.584-101.888 75.776-2.56-1.536c-5.632-3.072-12.288-4.608-18.944-4.608-3.072 0-6.144 0.512-8.704 1.024l-3.072 0.512-31.232-52.224 2.048-2.56c6.144-6.656 9.216-14.848 9.216-23.552 0-19.456-15.872-34.816-34.816-34.816-19.456 0-34.816 15.872-34.816 34.816 0 19.456 15.872 34.816 34.816 34.816 2.56 0 5.12-0.512 7.68-1.024l2.56-1.024zM1177.6 492.544c-50.688 50.688-118.272 78.848-190.464 78.848s-139.776-28.16-190.464-78.848c-50.688-50.688-78.848-118.272-78.848-190.464s28.16-139.776 78.848-190.464c50.688-50.688 118.272-78.848 190.464-78.848s139.776 28.16 190.464 78.848c50.688 50.688 78.848 118.272 78.848 190.464 0 71.68-27.648 139.264-78.848 190.464z m-190.464 69.632c143.36 0 260.608-116.736 260.608-260.608S1131.008 40.960000000000036 987.136 40.960000000000036 727.04 158.20799999999997 727.04 302.08000000000004s116.736 260.096 260.096 260.096z m-6.656 4.608h1.536-1.536zM924.16-5.631999999999948H281.6c-32.256 0-58.368-26.112-58.368-58.368v-1.536c0-32.256 26.112-58.368 58.368-58.368h642.56c32.256 0 58.368 26.112 58.368 58.368v1.536c0 32.256-26.112 58.368-58.368 58.368zM924.16-128H281.6c-34.816 0-62.976 28.16-62.976 62.976v1.536c0 34.816 28.16 62.976 62.976 62.976h642.56c34.816 0 62.976-28.16 62.976-62.976v-1.536c-0.512-34.816-28.672-62.976-62.976-62.976zM281.6-9.727999999999952c-29.696 0-53.76-24.064-53.76-53.76v-1.536c0-29.696 24.064-53.76 53.76-53.76h642.56c29.696 0 53.76 24.064 53.76 53.76v1.536c0 29.696-24.064 53.76-53.76 53.76H281.6z"  horiz-adv-x="1256" />

    


  </font>
</defs>
</svg>
